<svg xmlns="http://www.w3.org/2000/svg" xmlns:xlink="http://www.w3.org/1999/xlink" width="793" zoomAndPan="magnify" viewBox="0 0 595.5 842.249979" height="1122" preserveAspectRatio="xMidYMid meet" version="1.0"><defs><clipPath id="ba614ee5bb"><path d="M 155.03125 291.027344 L 439.636719 291.027344 L 439.636719 550.117188 L 155.03125 550.117188 Z M 155.03125 291.027344 " clip-rule="nonzero"/></clipPath></defs><path fill="#7981c9" d="M 413.1875 507.972656 L 181.726562 507.972656 C 168.585938 507.972656 157.933594 497.320312 157.933594 484.179688 L 157.933594 322.835938 C 157.933594 309.695312 168.585938 299.042969 181.726562 299.042969 L 413.1875 299.042969 C 426.328125 299.042969 436.980469 309.695312 436.980469 322.835938 L 436.980469 484.179688 C 436.980469 497.320312 426.328125 507.972656 413.1875 507.972656 " fill-opacity="1" fill-rule="nonzero"/><path fill="#fa7c63" d="M 298.605469 317.566406 L 287.546875 299.734375 L 287.066406 300.035156 L 297.90625 317.519531 C 298.140625 317.53125 298.371094 317.550781 298.605469 317.566406 Z M 259.9375 302.871094 C 260.410156 302.925781 260.992188 303.5 261.296875 304.015625 L 278.410156 332.660156 C 278.445312 332.429688 278.5 332.148438 278.574219 331.824219 L 261.789062 303.722656 C 261.402344 303.078125 260.699219 302.386719 260.007812 302.300781 C 259.667969 302.261719 259.359375 302.371094 259.117188 302.617188 L 259.523438 303.015625 C 259.640625 302.898438 259.773438 302.851562 259.9375 302.871094 Z M 410.464844 345.382812 C 410.457031 345.410156 410.460938 345.40625 410.464844 345.382812 Z M 276.429688 425.886719 C 274.953125 424.335938 270.125 418.636719 270.125 410.324219 L 269.558594 410.324219 C 269.558594 418.847656 274.5 424.691406 276.019531 426.277344 C 285.007812 435.699219 291.863281 437.050781 292.148438 437.105469 L 292.375 437.144531 L 292.464844 436.933594 C 294.542969 431.941406 297.050781 426.441406 297.582031 426.097656 C 298.386719 425.863281 299.804688 426.976562 300.28125 427.425781 L 300.464844 427.597656 L 300.660156 427.433594 C 301.511719 426.722656 302.667969 426.023438 302.964844 426.15625 C 303.480469 426.519531 306.027344 431.984375 308.160156 436.9375 L 308.253906 437.15625 L 308.488281 437.101562 C 316.234375 435.328125 321.488281 429.898438 324.769531 425.964844 C 331.386719 418.027344 331.464844 409.230469 331.464844 409.140625 L 330.894531 409.140625 C 330.894531 409.226562 330.816406 417.820312 324.328125 425.601562 C 319.273438 431.664062 314.261719 435.132812 308.589844 436.492188 C 307.160156 433.179688 303.988281 426.003906 303.21875 425.648438 C 302.519531 425.324219 301.121094 426.332031 300.484375 426.839844 C 299.953125 426.378906 298.492188 425.230469 297.417969 425.554688 C 296.578125 425.800781 293.441406 433.113281 292.03125 436.492188 C 290.777344 436.175781 284.390625 434.226562 276.429688 425.886719 Z M 292.257812 321.523438 C 300.433594 319.414062 308.175781 321.503906 308.253906 321.523438 L 308.40625 320.976562 C 308.328125 320.953125 300.445312 318.824219 292.117188 320.972656 C 283.929688 323.085938 279.066406 329.953125 278.449219 331.21875 L 278.964844 331.46875 C 279.5625 330.242188 284.28125 323.585938 292.257812 321.523438 Z M 292.53125 331.625 C 295.8125 332.363281 299.726562 335.183594 303.875 338.171875 C 309.5 342.226562 315.71875 346.710938 321.566406 346.710938 C 323.066406 346.710938 324.539062 346.417969 325.972656 345.746094 L 325.730469 345.230469 C 319.007812 348.378906 311.144531 342.710938 304.207031 337.707031 C 300.011719 334.6875 296.050781 331.828125 292.652344 331.070312 C 283.605469 329.042969 278.371094 333.003906 278.152344 333.175781 L 278.5 333.625 C 278.550781 333.585938 283.742188 329.660156 292.53125 331.625 Z M 279.152344 337.101562 C 278.144531 339.425781 278.4375 342.003906 278.726562 344.5 C 278.785156 345 278.839844 345.496094 278.886719 345.992188 C 279.167969 348.957031 278.925781 351.371094 278.152344 353.367188 C 277.1875 355.863281 275.304688 357.730469 273.117188 358.367188 L 273.277344 358.914062 C 275.632812 358.230469 277.652344 356.230469 278.683594 353.574219 C 279.492188 351.496094 279.742188 348.996094 279.457031 345.9375 C 279.410156 345.441406 279.351562 344.941406 279.292969 344.433594 C 279.015625 342.015625 278.726562 339.511719 279.671875 337.332031 Z M 283.949219 401.691406 C 283.367188 403.449219 282.566406 404.945312 281.476562 405.597656 C 278.152344 412.324219 280.625 423.054688 300.511719 425.519531 C 300.511719 425.519531 330.667969 418.859375 320.394531 404.191406 C 320.027344 403.507812 319.632812 402.644531 319.269531 401.585938 L 319.269531 401.582031 C 318.726562 399.996094 318.257812 397.960938 318.046875 395.417969 C 318.066406 395.625 318.082031 395.832031 318.101562 396.03125 C 313.964844 401.257812 307.617188 407.71875 301.527344 407.71875 C 293.832031 407.71875 287.8125 399.125 285.308594 394.875 C 285.316406 394.789062 285.324219 394.710938 285.332031 394.632812 C 285.136719 396.511719 284.738281 399.332031 283.949219 401.691406 Z M 336.734375 487.199219 C 336.734375 481.597656 332.191406 477.054688 326.589844 477.054688 C 320.988281 477.054688 316.445312 481.597656 316.445312 487.199219 C 316.445312 492.800781 320.988281 497.34375 326.589844 497.34375 C 332.191406 497.34375 336.734375 492.800781 336.734375 487.199219 Z M 304.875 480.027344 C 300.914062 476.0625 294.492188 476.0625 290.53125 480.027344 C 286.570312 483.988281 286.570312 490.410156 290.53125 494.371094 C 294.492188 498.332031 300.914062 498.332031 304.875 494.371094 C 308.835938 490.410156 308.835938 483.988281 304.875 480.027344 Z M 278.960938 487.199219 C 278.960938 481.597656 274.417969 477.054688 268.816406 477.054688 C 263.214844 477.054688 258.671875 481.597656 258.671875 487.199219 C 258.671875 492.800781 263.214844 497.34375 268.816406 497.34375 C 274.417969 497.34375 278.960938 492.800781 278.960938 487.199219 Z M 358.257812 423.558594 L 372.453125 423.558594 L 371.460938 384.917969 L 356.367188 384.917969 Z M 356.140625 380.253906 L 371.339844 380.253906 L 370.214844 336.136719 L 354.03125 337.21875 Z M 376.0625 337.980469 C 376.058594 337.996094 376.058594 338.007812 376.054688 338.019531 C 376.058594 338.007812 376.058594 337.996094 376.0625 337.980469 Z M 376.09375 335.746094 L 376.132812 337.5625 C 376.296875 336.789062 376.609375 336.171875 376.996094 335.683594 Z M 384.296875 329.839844 C 384.199219 329.898438 384.105469 329.960938 384.003906 330.015625 C 384.105469 329.960938 384.199219 329.898438 384.296875 329.839844 Z M 383.808594 330.128906 C 383.714844 330.179688 383.621094 330.234375 383.527344 330.285156 C 383.621094 330.234375 383.714844 330.179688 383.808594 330.128906 Z M 383.308594 330.398438 C 383.21875 330.445312 383.125 330.492188 383.035156 330.539062 C 383.125 330.492188 383.21875 330.445312 383.308594 330.398438 Z M 382.792969 330.648438 C 382.707031 330.6875 382.617188 330.730469 382.53125 330.765625 C 382.617188 330.730469 382.707031 330.6875 382.792969 330.648438 Z M 384.621094 329.632812 C 384.570312 329.664062 384.519531 329.699219 384.46875 329.734375 C 384.519531 329.699219 384.570312 329.667969 384.621094 329.632812 Z M 385.347656 329.128906 C 385.457031 329.050781 385.5625 328.96875 385.667969 328.886719 C 385.5625 328.96875 385.457031 329.050781 385.347656 329.128906 Z M 385.761719 328.8125 C 385.871094 328.726562 385.980469 328.640625 386.089844 328.550781 C 385.980469 328.640625 385.871094 328.726562 385.761719 328.8125 Z M 386.160156 328.492188 C 386.277344 328.398438 386.386719 328.304688 386.496094 328.207031 C 386.386719 328.304688 386.277344 328.398438 386.160156 328.492188 Z M 386.542969 328.167969 C 386.660156 328.066406 386.777344 327.964844 386.886719 327.863281 C 386.777344 327.964844 386.660156 328.066406 386.542969 328.167969 Z M 385.101562 329.304688 C 385.101562 329.308594 385.101562 329.308594 385.101562 329.308594 C 385.144531 329.277344 385.183594 329.246094 385.226562 329.21875 C 385.183594 329.246094 385.140625 329.277344 385.101562 329.304688 Z M 396.042969 335.109375 L 396.042969 340.335938 C 396.140625 340.4375 396.238281 340.542969 396.339844 340.648438 L 396.339844 335.109375 Z M 401.582031 328.835938 C 401.921875 328.945312 402.261719 329.050781 402.597656 329.152344 C 402.261719 329.050781 401.921875 328.945312 401.582031 328.835938 Z M 396.988281 327.179688 C 398.492188 327.789062 400.011719 328.332031 401.484375 328.804688 C 400.011719 328.332031 398.492188 327.789062 396.988281 327.179688 Z M 404.769531 329.78125 C 404.085938 329.59375 403.378906 329.390625 402.65625 329.171875 C 403.378906 329.390625 404.085938 329.59375 404.769531 329.78125 Z M 398.117188 343.347656 C 397.925781 343.140625 397.734375 342.933594 397.542969 342.730469 C 397.117188 342.613281 396.621094 342.757812 396.339844 342.867188 L 396.339844 341.472656 C 396.238281 341.367188 396.140625 341.261719 396.042969 341.160156 L 396.042969 343.34375 L 396.261719 343.230469 C 396.269531 343.226562 397.324219 342.703125 397.761719 343.195312 C 397.816406 343.257812 397.835938 343.328125 397.832031 343.421875 C 397.789062 343.886719 397.019531 344.589844 396.726562 344.820312 L 396.910156 345.054688 C 397.027344 344.960938 398.070312 344.125 398.128906 343.445312 C 398.128906 343.410156 398.121094 343.378906 398.117188 343.347656 Z M 400.980469 349.875 C 400.980469 349.875 399.273438 348.5625 396.40625 348.5625 C 393.542969 348.5625 391.804688 349.875 391.832031 349.875 C 391.832031 349.875 393 352.921875 396.40625 352.921875 C 399.816406 352.921875 400.980469 349.875 400.980469 349.875 Z M 382.261719 330.875 C 382.179688 330.90625 382.097656 330.941406 382.007812 330.976562 C 382.097656 330.941406 382.179688 330.90625 382.261719 330.875 Z M 381.71875 331.074219 C 381.636719 331.101562 381.558594 331.132812 381.480469 331.15625 C 381.558594 331.132812 381.636719 331.101562 381.71875 331.074219 Z M 381.15625 331.25 C 381.085938 331.269531 381.011719 331.292969 380.933594 331.3125 C 381.011719 331.292969 381.085938 331.269531 381.15625 331.25 Z M 380.570312 331.394531 C 380.503906 331.410156 380.445312 331.425781 380.378906 331.4375 C 380.445312 331.425781 380.503906 331.410156 380.570312 331.394531 Z M 380.953125 341.90625 C 380.644531 340.398438 380.417969 338.859375 380.269531 337.316406 C 379.589844 337.402344 378.46875 337.761719 378.265625 339.160156 C 378.027344 340.804688 379.566406 342.320312 380.953125 341.90625 Z M 377.8125 334.886719 C 377.792969 334.898438 377.773438 334.914062 377.753906 334.929688 C 377.773438 334.914062 377.792969 334.898438 377.8125 334.886719 Z M 377.539062 335.109375 C 377.523438 335.121094 377.515625 335.132812 377.5 335.144531 C 377.515625 335.132812 377.523438 335.121094 377.539062 335.109375 Z M 376.023438 338.421875 C 376.019531 338.449219 376.019531 338.476562 376.015625 338.503906 C 376.015625 338.476562 376.019531 338.449219 376.023438 338.421875 Z M 376.015625 339.007812 C 376.015625 338.96875 376.015625 338.9375 376.015625 338.898438 C 376.015625 338.933594 376.015625 338.96875 376.015625 339.007812 Z M 309.9375 385.140625 L 309.589844 384.691406 C 301.089844 391.285156 295.449219 385.035156 295.214844 384.765625 L 294.785156 385.140625 C 294.949219 385.328125 297.609375 388.28125 301.960938 388.28125 C 304.207031 388.28125 306.902344 387.496094 309.9375 385.140625 Z M 302.101562 358.1875 L 302.25 375.34375 L 302.597656 375.265625 C 302.980469 375.179688 303.371094 375.117188 303.75 375.082031 C 303.976562 375.0625 304.195312 375.054688 304.402344 375.066406 C 305.042969 375.089844 305.542969 375.261719 305.667969 375.675781 C 305.761719 375.980469 305.71875 376.289062 305.535156 376.625 C 305 377.601562 303.316406 378.507812 302.304688 378.789062 L 302.457031 379.335938 C 303.273438 379.109375 304.5 378.519531 305.339844 377.746094 C 305.492188 377.605469 305.628906 377.464844 305.75 377.316406 C 305.855469 377.179688 305.957031 377.042969 306.03125 376.898438 C 306.292969 376.429688 306.351562 375.960938 306.214844 375.507812 C 305.949219 374.65625 305.015625 374.449219 304.058594 374.484375 C 303.84375 374.492188 303.632812 374.511719 303.425781 374.539062 C 303.214844 374.566406 303.007812 374.601562 302.816406 374.636719 L 302.800781 373.003906 L 302.792969 372.375 L 302.671875 358.183594 Z M 246.71875 340.265625 L 228.457031 339.078125 L 229.058594 377.253906 L 244.839844 378.699219 Z M 244.632812 382.917969 L 229.125 381.425781 L 229.808594 424.765625 L 242.589844 424.765625 Z M 225.113281 424.765625 C 224.933594 417.898438 224.441406 399.363281 223.9375 380.929688 L 208.078125 379.40625 L 211.910156 424.765625 Z M 204.539062 337.519531 L 207.730469 375.300781 L 223.820312 376.773438 C 223.375 360.632812 222.933594 345.273438 222.691406 338.703125 Z M 411.53125 340.699219 C 411.53125 340.699219 413.796875 341.351562 414.71875 339.644531 C 415.636719 337.941406 413.734375 335.753906 412.019531 336.632812 C 412.019531 336.632812 412.203125 338.734375 411.53125 340.699219 Z M 377.191406 384.917969 L 378.058594 423.558594 L 388.6875 423.558594 L 392.53125 384.917969 Z M 352.507812 508.332031 C 352.433594 507.800781 352.359375 507.269531 352.28125 506.734375 C 319.578125 506.734375 279.925781 506.734375 246.871094 506.734375 M 246.304688 506.734375 C 211.648438 506.734375 184.375 506.734375 180.207031 506.734375 C 168.316406 506.734375 159.457031 509.53125 159.457031 466.257812 L 188.777344 466.257812 C 178.074219 452.988281 167.785156 439.28125 158.078125 425.351562 L 158.546875 425.027344 C 168.332031 439.070312 178.710938 452.886719 189.511719 466.257812 L 215.574219 466.257812 C 210.296875 460.6875 205.757812 454.390625 201.335938 448.246094 C 197.761719 443.277344 194.0625 438.136719 190.023438 433.453125 C 186.855469 429.78125 183.367188 426.25 179.992188 422.832031 C 172.898438 415.65625 165.570312 408.238281 160.882812 399.15625 L 161.390625 398.894531 C 166.035156 407.902344 173.335938 415.289062 180.394531 422.433594 C 183.777344 425.855469 187.277344 429.394531 190.453125 433.082031 C 194.507812 437.785156 198.214844 442.933594 201.800781 447.910156 C 206.3125 454.183594 210.945312 460.617188 216.355469 466.257812 L 245.386719 466.257812 C 243.863281 462.707031 242.976562 458.878906 242.828125 454.972656 L 243.398438 454.953125 C 243.542969 458.867188 244.441406 462.707031 246 466.257812 L 355.292969 466.257812 C 355.492188 465.277344 355.613281 464.28125 355.578125 463.277344 L 356.148438 463.257812 C 356.179688 464.277344 356.066406 465.277344 355.875 466.257812 L 394.625 466.257812 C 390.886719 460.992188 387.0625 455.761719 383.09375 450.695312 C 381.140625 448.199219 379.109375 445.695312 377.152344 443.265625 C 373.582031 438.851562 369.921875 434.3125 366.507812 429.621094 L 354.03125 429.621094 L 352.363281 406.800781 C 351.894531 405.976562 351.425781 405.148438 350.953125 404.324219 C 344.164062 392.433594 336.964844 380.585938 329.796875 368.972656 C 329.941406 369.871094 329.957031 370.882812 329.789062 372.019531 C 328.824219 378.625 322.703125 377.980469 322.703125 377.980469 C 322.703125 377.980469 322.222656 383.78125 321.738281 386.035156 C 320.851562 390.121094 310.460938 403.257812 302.085938 403.257812 C 295.285156 403.257812 288.378906 396.476562 285.503906 392.542969 C 285.503906 392.542969 285.5 392.566406 285.5 392.585938 C 285.5 392.558594 285.503906 392.542969 285.503906 392.542969 C 285.503906 392.542969 285.5 392.609375 285.492188 392.726562 C 273.796875 378.210938 262.863281 363.003906 252.867188 347.339844 C 252.605469 346.929688 252.339844 346.511719 252.078125 346.101562 L 249.789062 391.890625 C 252.265625 395.777344 254.6875 399.613281 257.007812 403.332031 L 258.683594 406.023438 C 264.277344 415.015625 270.058594 424.316406 276.90625 432.59375 C 277.476562 433.289062 278.0625 433.980469 278.644531 434.667969 C 281.832031 438.441406 285.128906 442.34375 286.949219 447 L 286.417969 447.203125 C 284.632812 442.640625 281.367188 438.773438 278.210938 435.035156 C 277.625 434.34375 277.039062 433.652344 276.464844 432.957031 C 269.597656 424.648438 263.804688 415.332031 258.199219 406.324219 L 256.527344 403.632812 C 254.339844 400.128906 252.066406 396.523438 249.738281 392.871094 L 247.898438 429.621094 L 238.96875 429.621094 C 243.84375 437.824219 248.714844 446.027344 253.582031 454.234375 L 253.089844 454.523438 C 248.167969 446.21875 243.238281 437.921875 238.304688 429.621094 L 218.636719 429.621094 C 226.074219 438.335938 233.652344 447.085938 241.214844 455.667969 L 240.785156 456.042969 C 233.117188 447.339844 225.429688 438.460938 217.890625 429.621094 L 206.601562 429.621094 L 205.25 414.664062 C 190.441406 396.972656 175.742188 378.851562 161.523438 360.730469 L 161.972656 360.378906 C 176.019531 378.277344 190.53125 396.183594 205.160156 413.667969 L 200.960938 367.148438 C 188.601562 346.570312 176.054688 325.78125 163.613281 305.269531 L 164.101562 304.972656 C 176.339844 325.15625 188.679688 345.597656 200.84375 365.84375 L 197.753906 331.632812 L 209.476562 332.433594 C 204.859375 325.699219 200.230469 318.972656 195.597656 312.25 C 192.9375 308.386719 190.1875 304.394531 187.023438 300.832031 L 187.445312 300.453125 C 190.636719 304.042969 193.398438 308.050781 196.066406 311.925781 C 200.785156 318.773438 205.5 325.625 210.199219 332.480469 L 245.050781 334.855469 C 237.542969 322.796875 229.707031 310.472656 220.164062 299.761719 L 220.589844 299.382812 C 230.257812 310.230469 238.160156 322.710938 245.75 334.902344 L 252.617188 335.371094 L 252.128906 345.117188 C 252.535156 345.753906 252.941406 346.394531 253.347656 347.03125 C 262.796875 361.84375 273.097656 376.238281 284.078125 390.035156 C 283.089844 387.070312 281.460938 378.625 281.460938 378.625 C 274.695312 380.394531 271.796875 373.148438 273.726562 367.667969 C 275.660156 362.191406 280.652344 363.480469 280.652344 363.480469 C 280.652344 363.480469 281.15625 363.644531 280.785156 358.988281 C 279.015625 360.960938 275.390625 361.117188 275.230469 361.125 L 275.210938 360.554688 C 275.25 360.554688 279.003906 360.394531 280.519531 358.425781 L 280.75 358.605469 C 280.75 358.582031 280.746094 358.5625 280.746094 358.539062 C 280.746094 358.539062 283.269531 356.898438 282.566406 351.511719 C 281.882812 346.3125 283.152344 343.664062 283.53125 343.132812 C 283.546875 343.109375 283.5625 343.09375 283.578125 343.074219 C 283.671875 343.171875 296.933594 356.59375 311.113281 349.707031 C 309.941406 348.96875 308.75 348.410156 307.375 347.78125 C 304.964844 346.671875 301.957031 345.289062 297.9375 342.210938 C 291.6875 337.421875 283.390625 337.492188 280.953125 339.125 L 280.636719 338.652344 C 283.519531 336.714844 292.035156 336.96875 298.285156 341.757812 C 302.253906 344.800781 305.101562 346.105469 307.613281 347.265625 C 309.089844 347.941406 310.363281 348.527344 311.636719 349.359375 L 311.507812 349.550781 C 311.839844 349.703125 315.128906 351.132812 318.582031 350.859375 C 318.789062 350.84375 319 350.824219 319.207031 350.792969 C 320.519531 350.605469 321.832031 350.152344 322.988281 349.257812 L 323.1875 357.214844 L 323.21875 358.339844 L 323.347656 363.351562 C 323.347656 363.351562 324.335938 363.699219 325.621094 363.628906 C 326.144531 363.824219 326.679688 364.113281 327.1875 364.492188 C 327.246094 364.3125 327.304688 364.128906 327.363281 363.949219 C 327.757812 364.585938 328.152344 365.226562 328.542969 365.859375 C 328.726562 366.109375 328.886719 366.378906 329.039062 366.664062 C 336.617188 378.925781 344.261719 391.453125 351.449219 404.042969 C 351.722656 404.519531 351.992188 405 352.265625 405.480469 L 346.847656 331.34375 L 347.101562 331.320312 C 338.949219 320.941406 330.511719 310.644531 321.96875 300.644531 L 322.402344 300.273438 C 331.027344 310.375 339.546875 320.773438 347.777344 331.257812 L 382.890625 327.929688 C 382.148438 327.195312 381.40625 326.46875 380.664062 325.742188 C 371.828125 317.0625 362.71875 308.117188 353.621094 299.460938 L 354.015625 299.050781 C 363.113281 307.707031 372.226562 316.65625 381.035156 325.308594 C 381.898438 326.15625 382.765625 327.007812 383.628906 327.859375 L 387.257812 327.515625 C 387.144531 327.625 387.027344 327.734375 386.910156 327.839844 C 389.089844 325.84375 390.390625 323.800781 390.390625 323.800781 C 392.367188 325.109375 394.648438 326.226562 396.980469 327.175781 C 396.601562 327.023438 396.222656 326.863281 395.851562 326.699219 L 405.171875 325.816406 L 404.769531 329.78125 C 409.183594 330.992188 412.546875 331.53125 412.546875 331.53125 C 412.546875 331.53125 412.546875 331.886719 412.480469 333.921875 C 413.359375 334.179688 416.726562 335.230469 416.277344 339.527344 C 416.238281 339.886719 416.175781 340.222656 416.105469 340.550781 C 416.089844 340.617188 416.042969 340.832031 416.027344 340.894531 C 415.839844 341.59375 415.574219 342.210938 415.25 342.75 C 415.246094 342.753906 415.214844 342.804688 415.207031 342.8125 C 415.074219 343.027344 414.929688 343.230469 414.773438 343.417969 C 414.773438 343.421875 414.761719 343.4375 414.757812 343.4375 C 413.640625 344.804688 412.0625 345.460938 410.464844 345.382812 C 410.484375 345.316406 410.542969 345.109375 410.589844 344.921875 C 409.792969 344.285156 408.785156 343.902344 407.683594 343.902344 C 405.335938 343.902344 403.398438 345.640625 403.074219 347.898438 C 406.777344 352.027344 410.339844 356.273438 413.671875 360.6875 C 418.972656 367.714844 423.761719 375.265625 428.394531 382.570312 L 435.523438 393.804688 C 435.472656 393.144531 435.136719 392.496094 434.601562 392.121094 L 434.929688 391.652344 C 435.878906 392.320312 436.324219 393.613281 435.988281 394.722656 L 435.808594 395.320312 L 427.914062 382.875 C 423.289062 375.582031 418.503906 368.039062 413.21875 361.03125 C 410.011719 356.78125 406.585938 352.6875 403.035156 348.707031 C 403.09375 350.589844 404.261719 352.191406 405.914062 352.867188 C 405.84375 352.9375 405.78125 353.003906 405.707031 353.070312 C 405.433594 353.269531 404.835938 353.800781 404.546875 354.09375 C 401.660156 356.46875 398.3125 358.164062 396.191406 358.164062 C 394.730469 358.164062 391.609375 356.640625 388.734375 354.574219 C 388.148438 354.15625 387.574219 353.710938 387.023438 353.25 C 387.011719 353.257812 386.699219 352.976562 386.371094 352.683594 C 386.496094 352.796875 386.617188 352.90625 386.746094 353.011719 C 388.648438 352.429688 390.03125 350.65625 390.03125 348.5625 C 390.03125 345.988281 387.945312 343.902344 385.371094 343.902344 C 383.984375 343.902344 382.742188 344.511719 381.890625 345.472656 C 382.234375 346.5625 381.910156 345.585938 381.847656 345.382812 C 381.328125 345.40625 380.808594 345.351562 380.308594 345.21875 C 380.292969 345.21875 380.027344 345.136719 380.003906 345.128906 C 379.25 344.882812 378.546875 344.460938 377.945312 343.859375 C 377.917969 343.832031 377.5 343.351562 377.476562 343.328125 C 376.957031 342.65625 376.546875 341.828125 376.289062 340.839844 C 376.285156 340.8125 376.195312 340.429688 376.191406 340.410156 C 376.191406 340.414062 376.195312 340.421875 376.199219 340.429688 L 377.085938 380.253906 L 392.996094 380.253906 L 394.402344 366.101562 L 390.683594 366.101562 C 390.484375 364.960938 390.300781 363.816406 390.109375 362.671875 C 389.765625 360.621094 389.425781 358.570312 389.082031 356.515625 C 390.480469 358.277344 393.175781 361.011719 396.40625 361.011719 C 399.628906 361.011719 402.476562 358.289062 403.976562 356.53125 C 403.984375 356.503906 403.992188 356.480469 403.996094 356.457031 C 403.394531 359.121094 402.46875 363.292969 401.847656 366.101562 L 401.074219 366.101562 L 397.542969 400.789062 C 410.824219 421.132812 423.625 442.132812 436.03125 462.5 L 435.558594 462.8125 C 423.265625 442.632812 410.589844 421.84375 397.449219 401.6875 L 394.609375 429.621094 L 367.210938 429.621094 C 370.546875 434.183594 374.113281 438.601562 377.59375 442.910156 C 379.554688 445.339844 381.585938 447.847656 383.539062 450.34375 C 387.597656 455.527344 391.511719 460.875 395.320312 466.257812 L 436.980469 466.257812 C 436.980469 466.257812 436.980469 483.464844 436.980469 491.3125 C 436.980469 499.15625 437.394531 506.734375 414.953125 506.734375 C 407.933594 506.734375 383.496094 506.734375 352.859375 506.734375 C 352.929688 507.242188 353 507.75 353.070312 508.253906 M 394.058594 299.578125 L 394.449219 299.167969 C 411.746094 315.636719 426.167969 334.695312 437.3125 355.816406 L 436.808594 356.082031 C 425.695312 335.015625 411.308594 316.003906 394.058594 299.578125 " fill-opacity="1" fill-rule="nonzero"/><path fill="#ffffff" d="M 304.269531 483.769531 C 304.222656 483.523438 304.097656 483.171875 303.835938 482.941406 C 303.574219 482.710938 302.53125 481.832031 301.148438 482.027344 C 299.765625 482.226562 298.058594 482.667969 295.617188 485.109375 C 293.171875 487.550781 292.730469 489.261719 292.535156 490.640625 C 292.335938 492.023438 293.21875 493.066406 293.445312 493.332031 C 293.675781 493.59375 294.03125 493.71875 294.277344 493.765625 C 294.523438 493.816406 295.171875 494.023438 295.328125 493.734375 C 295.484375 493.445312 296.539062 491.605469 296.777344 491.203125 C 297.015625 490.800781 296.136719 490.179688 295.871094 489.984375 C 295.609375 489.789062 295.15625 489.433594 295.296875 489.128906 C 295.433594 488.824219 296.042969 487.609375 297.082031 486.574219 C 298.113281 485.539062 299.332031 484.929688 299.632812 484.789062 C 299.9375 484.652344 300.292969 485.101562 300.488281 485.367188 C 300.6875 485.628906 301.304688 486.507812 301.707031 486.269531 C 302.109375 486.035156 303.949219 484.980469 304.238281 484.824219 C 304.527344 484.667969 304.324219 484.019531 304.269531 483.769531 Z M 329.4375 488.597656 L 332.304688 490.277344 L 332.289062 484.070312 L 329.429688 485.769531 L 329.429688 484.988281 C 329.425781 484.3125 328.875 483.765625 328.199219 483.765625 L 322.09375 483.785156 C 321.417969 483.785156 320.871094 484.339844 320.871094 485.015625 L 320.886719 489.40625 C 320.890625 490.082031 321.4375 490.632812 322.117188 490.628906 L 328.21875 490.609375 C 328.894531 490.609375 329.445312 490.058594 329.441406 489.378906 Z M 273.742188 491.265625 L 271.507812 489.03125 C 272.15625 488.410156 272.59375 487.5625 272.6875 486.617188 C 272.710938 486.40625 272.539062 486.222656 272.328125 486.222656 C 272.140625 486.222656 271.984375 486.363281 271.964844 486.550781 C 271.886719 487.320312 271.53125 488.011719 270.996094 488.519531 L 264.402344 481.925781 C 264.261719 481.785156 264.03125 481.785156 263.890625 481.925781 C 263.75 482.066406 263.75 482.296875 263.890625 482.4375 L 266.558594 485.109375 L 266.558594 486.394531 C 266.558594 487.644531 267.570312 488.65625 268.820312 488.65625 C 269.195312 488.65625 269.546875 488.5625 269.859375 488.402344 L 270.410156 488.957031 C 269.941406 489.230469 269.398438 489.390625 268.816406 489.390625 C 267.179688 489.390625 265.832031 488.140625 265.667969 486.550781 C 265.648438 486.363281 265.492188 486.222656 265.308594 486.222656 C 265.09375 486.222656 264.925781 486.40625 264.945312 486.617188 C 265.132812 488.460938 266.609375 489.929688 268.453125 490.097656 L 268.453125 491.902344 L 266.917969 491.902344 C 266.71875 491.902344 266.558594 492.066406 266.558594 492.265625 C 266.558594 492.464844 266.71875 492.628906 266.917969 492.628906 L 270.714844 492.628906 C 270.914062 492.628906 271.078125 492.464844 271.078125 492.265625 C 271.078125 492.066406 270.914062 491.902344 270.714844 491.902344 L 269.179688 491.902344 L 269.179688 490.097656 C 269.824219 490.039062 270.421875 489.820312 270.9375 489.484375 L 273.230469 491.777344 C 273.371094 491.917969 273.601562 491.917969 273.742188 491.777344 C 273.882812 491.636719 273.882812 491.40625 273.742188 491.265625 Z M 266.710938 483.210938 L 270.867188 487.363281 C 271.003906 487.070312 271.082031 486.742188 271.082031 486.394531 L 271.082031 484.027344 C 271.082031 482.777344 270.070312 481.765625 268.820312 481.765625 C 267.859375 481.765625 267.039062 482.367188 266.710938 483.210938 Z M 270.125 410.324219 C 270.125 418.636719 274.953125 424.335938 276.429688 425.886719 C 284.390625 434.226562 290.777344 436.175781 292.03125 436.492188 C 293.441406 433.113281 296.578125 425.800781 297.417969 425.554688 C 298.492188 425.230469 299.953125 426.378906 300.484375 426.839844 C 301.121094 426.332031 302.519531 425.324219 303.21875 425.648438 C 303.988281 426.003906 307.160156 433.179688 308.589844 436.492188 C 314.261719 435.132812 319.273438 431.664062 324.328125 425.601562 C 330.816406 417.820312 330.894531 409.226562 330.894531 409.140625 L 331.179688 409.140625 C 331.179688 409.140625 321.363281 401.445312 321.054688 401.265625 C 320.742188 401.089844 319.269531 401.582031 319.269531 401.582031 L 320.394531 404.191406 C 322.859375 415.835938 300.632812 424.753906 300.632812 424.753906 C 286.484375 417.894531 281.910156 408.464844 281.476562 405.597656 C 282.6875 404.839844 283.949219 401.691406 283.949219 401.691406 C 283.949219 401.691406 281.257812 401.007812 280.664062 401.375 C 278.902344 402.464844 269.84375 410.324219 269.84375 410.324219 Z M 360.417969 475.191406 L 359.941406 474.886719 C 358.875 476.554688 357.296875 477.929688 355.496094 478.753906 L 355.734375 479.273438 C 357.632812 478.402344 359.296875 476.953125 360.417969 475.191406 Z M 336.734375 487.199219 C 336.734375 481.597656 332.191406 477.054688 326.589844 477.054688 C 320.988281 477.054688 316.445312 481.597656 316.445312 487.199219 C 316.445312 492.800781 320.988281 497.34375 326.589844 497.34375 C 332.191406 497.34375 336.734375 492.800781 336.734375 487.199219 Z M 304.875 480.027344 C 300.914062 476.0625 294.492188 476.0625 290.53125 480.027344 C 286.570312 483.988281 286.570312 490.410156 290.53125 494.371094 C 294.492188 498.332031 300.914062 498.332031 304.875 494.371094 C 308.835938 490.410156 308.835938 483.988281 304.875 480.027344 Z M 278.960938 487.199219 C 278.960938 481.597656 274.417969 477.054688 268.816406 477.054688 C 263.214844 477.054688 258.671875 481.597656 258.671875 487.199219 C 258.671875 492.800781 263.214844 497.34375 268.816406 497.34375 C 274.417969 497.34375 278.960938 492.800781 278.960938 487.199219 Z M 383.171875 506.214844 L 352.785156 506.214844 C 351.71875 498.585938 350.75 490.742188 351.355469 483.003906 C 351.566406 480.304688 351.933594 478.136719 352.507812 476.1875 C 352.910156 474.816406 353.453125 473.441406 353.976562 472.113281 C 355.089844 469.28125 356.246094 466.351562 356.148438 463.257812 L 355.578125 463.277344 C 355.671875 466.25 354.539062 469.125 353.445312 471.902344 C 352.917969 473.242188 352.371094 474.632812 351.960938 476.027344 C 351.375 478.015625 351 480.21875 350.789062 482.960938 C 350.183594 490.734375 351.144531 498.578125 352.210938 506.214844 L 246.878906 506.214844 C 246.929688 501.414062 246.992188 496.546875 247.054688 491.78125 C 247.148438 484.570312 247.242188 477.132812 247.292969 470.023438 C 248.285156 471.683594 249.421875 473.261719 250.710938 474.726562 L 251.136719 474.347656 C 246.417969 468.980469 243.667969 462.09375 243.398438 454.953125 L 242.828125 454.972656 C 243.015625 459.921875 244.371094 464.746094 246.734375 469.046875 C 246.683594 476.441406 246.582031 484.234375 246.484375 491.777344 C 246.421875 496.542969 246.359375 501.410156 246.308594 506.214844 L 220.109375 506.214844 C 220.394531 496.9375 220.785156 485.34375 221.28125 473.113281 C 222.441406 444.4375 231.972656 428.8125 237.726562 424.753906 C 244.246094 420.15625 266.789062 411.492188 269.5625 410.433594 C 269.605469 418.894531 274.507812 424.699219 276.019531 426.277344 C 285.007812 435.699219 291.863281 437.050781 292.148438 437.105469 L 292.375 437.144531 L 292.464844 436.933594 C 294.542969 431.941406 297.050781 426.441406 297.582031 426.097656 C 298.386719 425.863281 299.804688 426.976562 300.28125 427.425781 L 300.464844 427.597656 L 300.660156 427.433594 C 301.511719 426.722656 302.667969 426.023438 302.964844 426.15625 C 303.480469 426.519531 306.027344 431.984375 308.160156 436.9375 L 308.253906 437.15625 L 308.488281 437.101562 C 316.234375 435.328125 321.488281 429.898438 324.769531 425.964844 C 330.992188 418.496094 331.429688 410.273438 331.460938 409.25 C 333.058594 409.859375 341.253906 413.019531 348.269531 416.035156 C 354.222656 418.597656 360.351562 421.339844 363.464844 423.058594 C 374.976562 429.421875 379.96875 436.300781 382.488281 451.21875 C 384.042969 460.425781 383.679688 487.125 383.171875 506.214844 Z M 381.734375 345.316406 C 381.792969 345.285156 381.828125 345.261719 381.828125 345.261719 C 381.828125 345.261719 381.351562 343.703125 381.246094 343.28125 C 381.023438 342.308594 380.675781 340.308594 380.675781 340.308594 C 380.675781 340.308594 378.640625 340.417969 379.101562 342.429688 C 379.28125 343.234375 379.960938 343.484375 380.335938 343.644531 C 380.390625 343.835938 380.964844 345.453125 380.964844 345.453125 C 381.089844 345.492188 381.21875 345.488281 381.335938 345.464844 C 382.050781 347.753906 384.28125 354.949219 384.941406 357.914062 C 385.332031 359.652344 384.214844 360.949219 383.136719 362.207031 C 382.058594 363.457031 381.042969 364.636719 381.527344 366.164062 L 381.9375 366.035156 C 381.523438 364.734375 382.421875 363.691406 383.460938 362.484375 C 384.554688 361.210938 385.796875 359.769531 385.359375 357.820312 C 384.695312 354.832031 382.449219 347.589844 381.734375 345.316406 Z M 411.792969 340.082031 C 411.792969 340.082031 411.476562 341.910156 411.273438 342.800781 C 411.171875 343.1875 410.792969 344.625 410.792969 344.625 C 410.792969 344.625 410.859375 344.667969 410.960938 344.71875 C 410.875 344.980469 410.75 345.332031 410.605469 345.746094 C 409.449219 349.046875 406.738281 356.769531 408.042969 359.730469 C 408.285156 360.28125 408.5 360.75 408.6875 361.160156 C 409.664062 363.304688 409.867188 363.753906 409.835938 366.097656 L 410.265625 366.105469 C 410.292969 363.660156 410.0625 363.148438 409.078125 360.984375 C 408.890625 360.574219 408.675781 360.105469 408.433594 359.554688 C 407.195312 356.753906 409.867188 349.140625 411.007812 345.890625 C 411.164062 345.445312 411.285156 345.09375 411.375 344.832031 C 411.453125 344.835938 411.53125 344.832031 411.609375 344.808594 L 411.898438 343.199219 C 412.195312 343.121094 412.738281 342.894531 412.945312 341.910156 C 413.304688 340.175781 411.792969 340.082031 411.792969 340.082031 Z M 409.402344 338.566406 C 409.386719 338.554688 408.761719 338.046875 407.796875 337.625 C 407.917969 337.976562 407.988281 338.347656 407.988281 338.738281 C 407.988281 340.644531 406.53125 341.578125 404.621094 341.578125 C 402.910156 341.578125 401.398438 340.941406 401.128906 339.300781 C 400.78125 339.71875 400.445312 340.199219 400.132812 340.730469 L 399.9375 340.617188 C 399.9375 340.617188 406.207031 345.371094 409.542969 338.394531 Z M 392.25 340.730469 C 391.933594 340.199219 391.601562 339.71875 391.253906 339.300781 C 390.984375 340.941406 388.808594 340.082031 387.089844 340.082031 C 385.183594 340.082031 385.804688 340.367188 385.804688 338.460938 C 385.804688 338.070312 384.464844 337.976562 384.582031 337.625 C 383.621094 338.046875 382.996094 338.554688 382.980469 338.566406 L 382.839844 338.394531 C 386.175781 345.371094 392.441406 340.617188 392.441406 340.617188 Z M 296.101562 370.28125 C 296.101562 370.28125 295.542969 359.761719 284.039062 363.953125 C 284.039062 363.953125 284.792969 374.800781 296.101562 370.28125 Z M 308.332031 370.28125 C 308.332031 370.28125 308.890625 359.761719 320.394531 363.953125 C 320.394531 363.953125 319.640625 374.800781 308.332031 370.28125 " fill-opacity="1" fill-rule="nonzero"/><path fill="#fbc48d" d="M 282.566406 360.78125 C 282.566406 360.78125 288.320312 357.46875 296.839844 360.121094 L 296.105469 356.214844 C 296.105469 356.214844 291.230469 355.070312 287.796875 355.78125 C 284.367188 356.496094 282.566406 360.78125 282.566406 360.78125 Z M 321.867188 360.78125 C 321.867188 360.78125 316.113281 357.46875 307.59375 360.121094 L 308.328125 356.214844 C 308.328125 356.214844 313.203125 355.070312 316.632812 355.78125 C 320.066406 356.496094 321.867188 360.78125 321.867188 360.78125 Z M 410.605469 345.746094 C 409.449219 349.046875 406.738281 356.769531 408.042969 359.730469 C 408.285156 360.28125 408.5 360.75 408.6875 361.160156 C 409.664062 363.304688 409.867188 363.753906 409.835938 366.097656 L 410.058594 366.101562 L 401.847656 366.101562 C 402.734375 362.09375 404.238281 355.304688 404.546875 354.09375 C 404.835938 353.800781 405.433594 353.269531 405.707031 353.070312 C 406.761719 352.085938 407.707031 351.023438 408.457031 349.9375 C 408.507812 349.859375 409.109375 348.910156 409.230469 348.679688 C 409.710938 347.78125 410.117188 346.636719 410.464844 345.382812 C 410.554688 345.386719 410.644531 345.378906 410.734375 345.378906 C 410.691406 345.496094 410.652344 345.613281 410.605469 345.746094 Z M 424.632812 319.566406 L 424.632812 357.648438 C 424.632812 362.316406 420.847656 366.101562 416.179688 366.101562 L 410.265625 366.101562 C 410.292969 363.660156 410.058594 363.148438 409.078125 360.984375 C 408.890625 360.574219 408.675781 360.105469 408.433594 359.554688 C 407.195312 356.753906 409.867188 349.140625 411.007812 345.890625 C 411.074219 345.695312 411.136719 345.519531 411.191406 345.359375 C 412.53125 345.238281 413.808594 344.597656 414.757812 343.4375 C 414.761719 343.4375 414.773438 343.421875 414.773438 343.417969 C 414.929688 343.230469 415.074219 343.027344 415.207031 342.8125 C 415.214844 342.804688 415.246094 342.753906 415.25 342.75 C 415.574219 342.210938 415.839844 341.59375 416.027344 340.894531 C 416.042969 340.832031 416.089844 340.617188 416.105469 340.550781 C 416.175781 340.222656 416.238281 339.886719 416.277344 339.527344 C 416.726562 335.230469 413.359375 334.179688 412.480469 333.921875 C 412.546875 331.886719 412.546875 331.53125 412.546875 331.53125 C 412.546875 331.53125 398.746094 329.324219 390.390625 323.800781 C 390.390625 323.800781 385.992188 330.71875 379.8125 331.53125 L 380.054688 333.875 C 380.054688 333.875 379.1875 334.011719 378.253906 334.582031 C 378.199219 334.617188 378.113281 334.671875 378.066406 334.703125 C 376.929688 335.460938 375.773438 336.894531 376.050781 339.527344 C 376.082031 339.835938 376.132812 340.128906 376.191406 340.410156 C 376.195312 340.429688 376.285156 340.8125 376.289062 340.839844 C 376.546875 341.828125 376.957031 342.65625 377.476562 343.328125 C 377.5 343.351562 377.917969 343.832031 377.945312 343.859375 C 378.546875 344.460938 379.25 344.882812 380.003906 345.128906 C 380.027344 345.136719 380.292969 345.21875 380.308594 345.21875 C 380.511719 345.273438 380.71875 345.304688 380.925781 345.332031 C 380.949219 345.40625 380.964844 345.453125 380.964844 345.453125 C 381.089844 345.492188 381.21875 345.488281 381.335938 345.464844 C 382.050781 347.753906 384.28125 354.949219 384.941406 357.914062 C 385.332031 359.652344 384.214844 360.949219 383.136719 362.207031 C 382.074219 363.4375 381.074219 364.605469 381.511719 366.101562 L 378.097656 366.101562 C 373.429688 366.101562 369.644531 362.316406 369.644531 357.648438 L 369.644531 319.566406 C 369.644531 314.898438 373.429688 311.113281 378.097656 311.113281 L 416.179688 311.113281 C 420.847656 311.113281 424.632812 314.898438 424.632812 319.566406 Z M 390.109375 362.671875 C 390.300781 363.816406 390.484375 364.960938 390.683594 366.101562 L 381.730469 366.101562 L 381.9375 366.035156 C 381.523438 364.734375 382.421875 363.691406 383.460938 362.484375 C 384.554688 361.210938 385.796875 359.769531 385.359375 357.820312 C 384.699219 354.859375 382.484375 347.710938 381.753906 345.378906 C 381.785156 345.378906 381.816406 345.382812 381.847656 345.382812 C 381.910156 345.585938 382.253906 346.59375 382.289062 346.691406 C 382.53125 347.355469 382.789062 348.003906 383.074219 348.632812 C 383.136719 348.773438 383.210938 348.917969 383.289062 349.0625 C 383.304688 349.09375 383.476562 349.390625 383.492188 349.417969 C 383.914062 350.105469 384.476562 350.804688 385.136719 351.496094 C 385.15625 351.515625 385.679688 352.046875 385.695312 352.0625 C 385.929688 352.285156 387 353.261719 387.023438 353.25 C 387.574219 353.710938 388.148438 354.15625 388.734375 354.574219 C 388.757812 354.691406 388.9375 355.671875 388.980469 355.902344 C 388.988281 355.953125 388.996094 356.003906 389.007812 356.054688 C 389.375 358.261719 389.742188 360.46875 390.109375 362.671875 Z M 326.371094 354.441406 C 325.515625 355.246094 326.921875 353.410156 326.371094 354.441406 Z M 324.042969 358.464844 C 323.898438 357.3125 325.328125 356.417969 326.421875 357.007812 C 326.316406 358.019531 325.28125 358.320312 324.042969 358.464844 Z M 323.4375 330.527344 C 322.851562 331.078125 321.59375 330.054688 323.160156 330.472656 C 323.265625 329.777344 323.597656 330.066406 323.4375 330.527344 Z M 323.316406 339.984375 C 323.03125 340.96875 322.476562 338.980469 323.316406 339.984375 Z M 319.660156 330.625 C 319.472656 330.589844 319.289062 330.550781 319.105469 330.511719 C 319.144531 330.328125 319.179688 330.144531 319.21875 329.957031 C 319.402344 329.996094 319.585938 330.03125 319.773438 330.070312 C 319.734375 330.257812 319.695312 330.441406 319.660156 330.625 Z M 319.433594 348.792969 C 319.246094 348.757812 319.0625 348.71875 318.875 348.679688 C 318.914062 348.496094 318.953125 348.3125 318.988281 348.125 C 319.175781 348.164062 319.359375 348.199219 319.546875 348.238281 C 319.507812 348.421875 319.46875 348.609375 319.433594 348.792969 Z M 324.515625 355.542969 C 324.105469 356.527344 325.132812 354.058594 324.515625 355.542969 Z M 325.449219 353.988281 C 325.375 354.351562 325.167969 354.613281 324.683594 354.664062 C 324.757812 354.304688 324.964844 354.039062 325.449219 353.988281 Z M 325.558594 344.257812 C 325.417969 344.59375 324.949219 344.425781 325.003906 344.144531 C 325.207031 343.765625 325.242188 344.222656 325.558594 344.257812 Z M 315.816406 333.890625 C 315.769531 333.09375 316.480469 333.445312 316.597656 332.894531 C 316.988281 332.832031 316.4375 334.296875 315.816406 333.890625 Z M 315.035156 331.363281 C 315.09375 331.027344 315.433594 330.585938 315.558594 331.007812 C 315.902344 330.683594 316.023438 330.183594 316.253906 329.773438 C 317.085938 330.222656 315.707031 332.019531 315.035156 331.363281 Z M 314.769531 333.683594 C 314.757812 333.683594 314.75 333.679688 314.738281 333.679688 C 314.625 333.933594 314.378906 334.105469 314.09375 333.828125 C 314.175781 333.746094 314.257812 333.660156 314.328125 333.558594 C 313.945312 333.269531 314.460938 332.597656 314.679688 333.09375 C 314.816406 333.183594 314.832031 333.40625 314.765625 333.609375 C 314.769531 333.636719 314.769531 333.65625 314.769531 333.683594 Z M 313.539062 333.714844 C 312.625 334.660156 313.320312 332.714844 313.539062 333.714844 Z M 312.246094 337.210938 C 311.179688 337.695312 313.109375 336.417969 312.246094 337.210938 Z M 311.90625 340.320312 C 312.914062 339.984375 310.378906 340.835938 311.90625 340.320312 Z M 311.457031 341.101562 C 311.398438 341.167969 310.753906 341.492188 310.566406 341.207031 C 310.414062 340.976562 311.816406 340.664062 311.457031 341.101562 Z M 309.828125 346.261719 C 309.261719 346.054688 310.316406 345.355469 310.832031 345.597656 C 311.0625 346.671875 309.855469 345.574219 309.828125 346.261719 Z M 308.492188 347.144531 C 308.65625 346.785156 309.234375 347.058594 309.660156 347.09375 C 309.496094 347.453125 308.917969 347.179688 308.492188 347.144531 Z M 308.355469 322.253906 C 307.488281 321.796875 308.777344 321.769531 308.800781 321.476562 C 309.574219 321.796875 308.285156 321.824219 308.355469 322.253906 Z M 308.214844 335.976562 C 309.058594 335.328125 306.9375 336.960938 308.214844 335.976562 Z M 306.390625 327.636719 C 306.503906 327.320312 306.945312 327.503906 307.28125 327.527344 C 307.167969 327.84375 306.726562 327.660156 306.390625 327.636719 Z M 306.316406 333.695312 C 307 334.785156 305.28125 335.28125 306.316406 333.695312 Z M 306.25 336.859375 C 305.097656 338.117188 306.929688 336.117188 306.25 336.859375 Z M 305.5 327.746094 C 304.121094 327.707031 307.183594 326.230469 305.558594 327.46875 C 305.535156 327.484375 305.519531 327.746094 305.5 327.746094 Z M 305.203125 350.523438 C 306.214844 350.183594 303.675781 351.035156 305.203125 350.523438 Z M 304.648438 333.351562 C 304.261719 334.433594 305.21875 331.757812 304.648438 333.351562 Z M 303.195312 319.179688 C 303.296875 318.96875 303.53125 318.960938 303.589844 318.683594 C 303.773438 318.71875 303.957031 318.757812 304.140625 318.796875 C 304.144531 319.042969 303.980469 319.035156 303.808594 319.015625 C 303.761719 319.289062 304.105469 319.300781 304.308594 319.40625 C 303.957031 320.203125 303.769531 319.019531 303.195312 319.179688 Z M 303.296875 322.960938 C 303.40625 322.644531 303.847656 322.828125 304.183594 322.851562 C 304.074219 323.167969 303.628906 322.980469 303.296875 322.960938 Z M 303.789062 324.792969 C 302.878906 325.738281 303.574219 323.792969 303.789062 324.792969 Z M 302.085938 318.957031 C 302.199219 318.640625 302.640625 318.820312 302.976562 318.847656 C 302.867188 319.164062 302.421875 318.976562 302.085938 318.957031 Z M 301.683594 323.785156 C 301.792969 323.472656 302.234375 323.65625 302.570312 323.679688 C 302.457031 323.996094 302.019531 323.8125 301.683594 323.785156 Z M 301.570312 339.953125 C 300.902344 339.703125 301.773438 338.875 302.296875 339.234375 C 302.125 339.582031 301.71875 339.574219 301.570312 339.953125 Z M 301.328125 329.789062 C 300.941406 330.867188 301.894531 328.191406 301.328125 329.789062 Z M 301.1875 321.953125 C 299.984375 320.882812 301.984375 322.660156 301.1875 321.953125 Z M 299.855469 338.449219 C 300.113281 338.113281 300.550781 338.054688 301.078125 338.121094 C 300.726562 338.554688 300.238281 339.0625 299.855469 338.449219 Z M 300.886719 344.730469 C 300.296875 345.570312 300.417969 343.507812 300.886719 344.730469 Z M 298.457031 341.054688 C 298.695312 340.8125 299.152344 340.898438 299.183594 340.335938 C 299.851562 340.589844 298.980469 341.417969 298.457031 341.054688 Z M 297.886719 346.484375 C 297.957031 346.058594 298.136719 346.484375 298.449219 346.410156 C 298.425781 346.773438 297.925781 346.769531 297.886719 346.484375 Z M 297.929688 349.332031 C 296.859375 349.8125 298.789062 348.539062 297.929688 349.332031 Z M 296.066406 341.4375 C 296.585938 340.164062 297.613281 339.660156 299.015625 339.722656 C 297.425781 340.125 297.726562 341.144531 296.066406 341.4375 Z M 296.3125 332.40625 C 296.296875 332.429688 296.367188 332.679688 296.347656 332.6875 C 295.03125 333.105469 297.445312 330.707031 296.3125 332.40625 Z M 295.171875 342.988281 C 294.183594 343.316406 296.863281 342.066406 295.171875 342.988281 Z M 294.898438 341.488281 C 295.175781 341.546875 295.453125 341.601562 295.734375 341.660156 C 295.757812 342.304688 295.121094 341.945312 295.007812 342.378906 C 294.691406 342.265625 294.875 341.824219 294.898438 341.488281 Z M 293.988281 331.761719 C 294.097656 331.445312 294.539062 331.632812 294.875 331.652344 C 294.765625 331.96875 294.324219 331.785156 293.988281 331.761719 Z M 293.996094 328.875 C 294.453125 329.175781 293.933594 329.386719 293.828125 329.707031 C 293.375 329.402344 293.890625 329.191406 293.996094 328.875 Z M 293.558594 343.820312 C 293.019531 343.609375 292.679688 343.699219 292.613281 344.203125 C 292.417969 344.011719 292.21875 343.824219 291.835938 343.757812 C 292.292969 343.238281 293.066406 343.195312 293.726562 342.984375 C 293.671875 343.261719 293.613281 343.539062 293.558594 343.820312 Z M 292.109375 345.257812 C 291.371094 345.257812 290.933594 345.511719 291.109375 344.476562 C 291.847656 344.476562 292.28125 344.222656 292.109375 345.257812 Z M 290.308594 343.199219 C 291.957031 342.785156 291.234375 344.398438 290.308594 343.199219 Z M 289.996094 345.695312 C 290.359375 344.34375 291.292969 345.75 289.996094 345.695312 Z M 289.257812 343.910156 C 289.039062 343.742188 290.265625 342.992188 290.066406 343.519531 C 290.035156 343.601562 289.527344 344.117188 289.257812 343.910156 Z M 289.695312 340.707031 C 289.507812 340.988281 289.476562 341.382812 289.558594 341.871094 C 289.078125 342.027344 288.851562 340.363281 289.695312 340.707031 Z M 288.382812 346.523438 C 288.589844 346.144531 288.621094 346.601562 288.9375 346.632812 C 288.796875 346.96875 288.328125 346.804688 288.382812 346.523438 Z M 289.378906 330.246094 C 290.28125 330.949219 288.816406 331.039062 288.597656 331.246094 C 287.769531 330.644531 289.230469 330.558594 289.378906 330.246094 Z M 288.800781 321.742188 C 289.664062 322.203125 288.375 322.230469 288.351562 322.519531 C 287.578125 322.199219 288.863281 322.175781 288.800781 321.742188 Z M 287.089844 334.40625 C 287.199219 334.089844 287.644531 334.273438 287.980469 334.296875 C 287.867188 334.613281 287.425781 334.429688 287.089844 334.40625 Z M 286.386719 344.960938 C 286.546875 344.601562 287.128906 344.871094 287.554688 344.910156 C 287.390625 345.269531 286.8125 344.996094 286.386719 344.960938 Z M 285.667969 344.234375 C 285.367188 344.726562 285.296875 343.847656 285.722656 343.957031 C 285.824219 343.730469 285.667969 343.675781 285.503906 343.621094 C 285.792969 342.996094 286.273438 344.101562 285.667969 344.234375 Z M 285.679688 339.902344 C 284.253906 340.671875 284.78125 338.917969 285.679688 339.902344 Z M 285.316406 333.175781 C 284.617188 334.402344 283.863281 333.265625 285.316406 333.175781 Z M 283.613281 327.339844 C 284.96875 327.34375 283.839844 328.730469 283.613281 327.339844 Z M 285.628906 323.121094 C 285.464844 323.4375 284.84375 323.199219 284.792969 322.953125 C 284.664062 322.300781 285.941406 322.515625 285.628906 323.121094 Z M 286.53125 334.292969 C 286.992188 334.4375 286.136719 335.585938 285.472656 335.234375 C 285.671875 334.683594 286.335938 334.839844 286.53125 334.292969 Z M 287.15625 331.242188 C 285.726562 332.011719 286.257812 330.257812 287.15625 331.242188 Z M 286.960938 322.238281 C 286.820312 322.574219 286.355469 322.40625 286.410156 322.125 C 286.613281 321.746094 286.644531 322.203125 286.960938 322.238281 Z M 290.191406 337.640625 C 290.226562 339.226562 288.417969 337.226562 290.191406 337.640625 Z M 291.300781 320.808594 C 291.109375 321.125 290.832031 321.308594 290.355469 321.191406 C 290.546875 320.878906 290.828125 320.695312 291.300781 320.808594 Z M 290.71875 329.359375 C 290.828125 329.046875 291.269531 329.230469 291.605469 329.253906 C 291.496094 329.570312 291.050781 329.386719 290.71875 329.359375 Z M 290.375 332.472656 C 290.484375 332.15625 290.929688 332.339844 291.261719 332.367188 C 291.152344 332.679688 290.707031 332.496094 290.375 332.472656 Z M 291.007812 337.679688 C 291.011719 337.34375 291.488281 337.375 291.8125 337.285156 C 291.8125 337.621094 291.332031 337.589844 291.007812 337.679688 Z M 291.285156 342.199219 C 290.476562 341.289062 292.851562 341.816406 291.285156 342.199219 Z M 292.214844 330.53125 C 291.144531 331.015625 293.074219 329.738281 292.214844 330.53125 Z M 293.058594 327.816406 C 293.015625 328.300781 292.4375 328.4375 292.886719 328.648438 C 292.246094 329.785156 292.007812 327.109375 293.058594 327.816406 Z M 292.429688 332.3125 C 292.539062 331.996094 292.984375 332.179688 293.320312 332.203125 C 293.207031 332.519531 292.765625 332.335938 292.429688 332.3125 Z M 292.464844 340.058594 C 292.652344 340.03125 292.839844 340.007812 293.027344 339.984375 C 293.0625 340.265625 293.101562 340.542969 293.136719 340.828125 C 292.890625 340.707031 292.644531 340.59375 292.257812 340.65625 C 292.28125 340.421875 292.503906 340.339844 292.464844 340.058594 Z M 292.300781 336.648438 C 290.984375 337.066406 293.394531 334.671875 292.265625 336.371094 C 292.25 336.390625 292.320312 336.644531 292.300781 336.648438 Z M 293.558594 335.34375 C 293.792969 335.945312 293.074219 335.8125 293.105469 336.257812 C 292.613281 336.40625 292.941406 335.171875 293.558594 335.34375 Z M 293.5625 325.316406 C 293.910156 324.835938 293.667969 325.648438 294.0625 325.707031 C 294.847656 326.242188 293.191406 325.910156 293.5625 325.316406 Z M 294.992188 329.65625 C 294.605469 329.511719 295.066406 328.808594 294.609375 328.710938 C 295.101562 327.882812 295.347656 329.136719 294.992188 329.65625 Z M 296.070312 324.378906 C 296.90625 323.621094 296.992188 325.585938 296.070312 324.378906 Z M 298.117188 325.664062 C 297.980469 326 297.507812 325.832031 297.5625 325.550781 C 297.769531 325.171875 297.800781 325.628906 298.117188 325.664062 Z M 298.355469 321.664062 C 297.289062 322.144531 299.214844 320.871094 298.355469 321.664062 Z M 298.847656 323.5 C 299.035156 323.539062 299.21875 323.574219 299.40625 323.613281 C 299.367188 323.796875 299.328125 323.984375 299.292969 324.167969 C 299.105469 324.132812 298.921875 324.09375 298.734375 324.054688 C 298.773438 323.871094 298.8125 323.683594 298.847656 323.5 Z M 299.722656 327.726562 C 298.574219 328.984375 300.402344 326.984375 299.722656 327.726562 Z M 299.40625 339.226562 C 298.496094 340.167969 299.1875 338.222656 299.40625 339.226562 Z M 299.214844 330.222656 C 300.085938 329.6875 300.660156 331.351562 299.214844 330.222656 Z M 300.46875 336.839844 C 300.082031 336.695312 300.542969 335.992188 300.085938 335.894531 C 300.578125 335.066406 300.820312 336.324219 300.46875 336.839844 Z M 300.671875 327.339844 C 300.078125 328.175781 300.199219 326.117188 300.671875 327.339844 Z M 301.910156 338.289062 C 301.695312 338.03125 301.59375 337.699219 301.523438 337.34375 C 301.785156 336.667969 302.03125 337.925781 301.910156 338.289062 Z M 302.246094 321.011719 C 301.941406 321.464844 301.734375 320.949219 301.414062 320.84375 C 301.71875 320.390625 301.925781 320.902344 302.246094 321.011719 Z M 305.078125 321.296875 C 304.167969 322.242188 304.863281 320.296875 305.078125 321.296875 Z M 305.304688 320.1875 C 304.394531 321.132812 305.085938 319.183594 305.304688 320.1875 Z M 306.84375 325.414062 C 306.804688 325.601562 306.765625 325.785156 306.730469 325.972656 C 306.542969 325.933594 306.359375 325.894531 306.175781 325.859375 C 306.214844 325.671875 306.25 325.488281 306.289062 325.300781 C 306.472656 325.339844 306.65625 325.378906 306.84375 325.414062 Z M 306.304688 319.523438 C 306.492188 319.5625 306.679688 319.601562 306.863281 319.636719 C 306.671875 319.832031 306.480469 320.03125 306.414062 320.414062 C 305.871094 320.140625 305.914062 319.859375 306.304688 319.523438 Z M 309.84375 324.871094 C 309.789062 324.9375 309.140625 325.265625 308.957031 324.980469 C 308.800781 324.746094 310.207031 324.4375 309.84375 324.871094 Z M 312.246094 329.730469 C 311.960938 330.714844 311.40625 328.726562 312.246094 329.730469 Z M 283.53125 334.839844 C 282.300781 335.597656 282.277344 333.792969 283.53125 334.839844 Z M 282.378906 347.613281 C 281.464844 348.554688 282.160156 346.613281 282.378906 347.613281 Z M 282.070312 356.222656 C 281.890625 356.90625 281.113281 356.113281 280.960938 356 C 281.144531 355.316406 281.917969 356.109375 282.070312 356.222656 Z M 281.605469 355.207031 C 281.605469 355.542969 281.125 355.511719 280.800781 355.601562 C 280.804688 355.265625 281.28125 355.296875 281.605469 355.207031 Z M 280.730469 350.75 C 280.753906 350.519531 280.976562 350.433594 280.9375 350.152344 C 281.125 350.128906 281.3125 350.105469 281.5 350.078125 C 281.585938 350.308594 281.425781 350.359375 281.257812 350.394531 C 281.300781 350.667969 281.628906 350.570312 281.855469 350.601562 C 281.78125 351.46875 281.21875 350.414062 280.730469 350.75 Z M 281.636719 337.054688 C 280.722656 337.996094 281.417969 336.050781 281.636719 337.054688 Z M 280.976562 334.609375 C 281.613281 333.664062 281.902344 334.097656 281.195312 334.941406 C 280.683594 334.917969 280.679688 334.5625 280.976562 334.609375 Z M 280.230469 341.105469 C 279.835938 342.050781 281.066406 339.121094 280.230469 341.105469 Z M 279.585938 352.902344 C 279.726562 352.375 280.09375 352.796875 280.429688 352.792969 C 280.289062 353.316406 279.925781 352.898438 279.585938 352.902344 Z M 280.234375 359.960938 C 280.210938 360.011719 280.195312 360.050781 280.175781 360.09375 C 280.128906 360.207031 280.078125 360.316406 280.042969 360.394531 C 279.984375 360.53125 280 360.503906 280.042969 360.394531 C 280.070312 360.335938 280.117188 360.234375 280.175781 360.09375 C 280.296875 359.8125 280.410156 359.550781 280.234375 359.960938 Z M 279.886719 354.089844 C 279.984375 354.128906 280.011719 354.140625 279.886719 354.089844 Z M 279.269531 353.832031 C 279.300781 353.84375 279.351562 353.867188 279.414062 353.890625 C 279.339844 353.863281 279.296875 353.84375 279.269531 353.832031 Z M 279.242188 337.433594 C 280.214844 336.242188 281.015625 337.453125 279.242188 337.433594 Z M 278.101562 356.8125 C 278.078125 356.625 278.054688 356.4375 278.03125 356.253906 C 278.214844 356.226562 278.402344 356.203125 278.589844 356.175781 C 278.613281 356.367188 278.640625 356.550781 278.664062 356.738281 C 278.480469 356.765625 278.289062 356.789062 278.101562 356.8125 Z M 277.757812 358.8125 C 277.765625 358.816406 277.773438 358.820312 277.78125 358.820312 C 277.644531 359.15625 277.175781 358.988281 277.230469 358.707031 C 277.34375 358.496094 277.40625 358.546875 277.492188 358.640625 C 277.492188 358.628906 277.484375 358.621094 277.484375 358.609375 C 277.554688 358.183594 277.734375 358.605469 278.046875 358.535156 C 278.03125 358.722656 277.894531 358.808594 277.757812 358.8125 Z M 276.566406 340.648438 C 276.773438 340.269531 276.804688 340.726562 277.121094 340.761719 C 276.980469 341.097656 276.511719 340.929688 276.566406 340.648438 Z M 276.964844 354.675781 C 276.109375 355.480469 277.519531 353.648438 276.964844 354.675781 Z M 276.945312 360.09375 C 276.761719 360.058594 276.574219 360.019531 276.390625 359.984375 C 276.429688 359.796875 276.464844 359.613281 276.503906 359.429688 C 276.6875 359.464844 276.871094 359.503906 277.058594 359.542969 C 277.023438 359.726562 276.984375 359.910156 276.945312 360.09375 Z M 276.390625 363.324219 C 275.980469 363.316406 276.179688 362.5 275.71875 362.558594 C 275.917969 361.613281 276.554688 362.722656 276.390625 363.324219 Z M 275.6875 357.988281 C 276.230469 357 276.953125 358.828125 275.6875 357.988281 Z M 274.886719 344.644531 C 274.996094 344.328125 275.441406 344.511719 275.777344 344.535156 C 275.664062 344.851562 275.222656 344.664062 274.886719 344.644531 Z M 275.304688 363.753906 C 274.777344 363.613281 275.195312 363.25 275.195312 362.910156 C 275.722656 363.050781 275.300781 363.417969 275.304688 363.753906 Z M 274.746094 348.683594 C 273.890625 349.488281 275.296875 347.652344 274.746094 348.683594 Z M 273.625 359.691406 C 273.792969 359.125 273.832031 359.972656 274.222656 359.898438 C 275.140625 360.148438 273.464844 360.375 273.625 359.691406 Z M 273.695312 349.394531 C 274.238281 349.003906 274.25 349.011719 274.011719 349.640625 C 273.449219 349.867188 273.273438 348.621094 273.695312 349.394531 Z M 272.316406 348.746094 C 271.40625 349.6875 272.101562 347.746094 272.316406 348.746094 Z M 272.222656 343.523438 C 271.3125 344.464844 272.007812 342.523438 272.222656 343.523438 Z M 274.949219 342.921875 C 274.308594 343.113281 274.300781 343.101562 274.726562 342.585938 C 275.332031 342.554688 275.097656 343.789062 274.949219 342.921875 Z M 274.957031 340.03125 C 275.628906 340.285156 274.753906 341.113281 274.234375 340.75 C 274.40625 340.40625 274.8125 340.414062 274.957031 340.03125 Z M 276.179688 339.703125 C 275.371094 338.792969 277.746094 339.324219 276.179688 339.703125 Z M 277.738281 339.152344 C 277.535156 338.886719 277.171875 338.726562 276.6875 338.648438 C 276.695312 338.140625 278.339844 338.46875 277.738281 339.152344 Z M 277.707031 345.152344 C 276.429688 346.132812 278.550781 344.5 277.707031 345.152344 Z M 277.824219 347.265625 C 279.441406 346.832031 276.660156 347.578125 277.824219 347.265625 Z M 278.019531 337.765625 C 278.027344 336.410156 279.414062 337.539062 278.019531 337.765625 Z M 280.414062 350.507812 C 280.410156 350.84375 279.933594 350.8125 279.609375 350.902344 C 279.609375 350.566406 280.089844 350.59375 280.414062 350.507812 Z M 280.292969 339.382812 C 279.382812 340.328125 280.074219 338.378906 280.292969 339.382812 Z M 331.761719 326.15625 C 328.242188 328.550781 322.75 326.859375 316.125 323.621094 C 309.507812 320.382812 298.238281 314.324219 288.519531 319.535156 C 287.953125 319.839844 287.417969 320.15625 286.914062 320.480469 C 286.945312 320.5 286.980469 320.511719 287.023438 320.515625 C 286.945312 320.707031 286.765625 320.730469 286.625 320.667969 C 286.347656 320.855469 286.074219 321.046875 285.8125 321.238281 C 285.789062 321.324219 285.820312 321.398438 285.964844 321.457031 C 285.722656 321.984375 285.585938 321.761719 285.484375 321.484375 C 284.925781 321.90625 284.414062 322.335938 283.941406 322.773438 C 283.949219 322.777344 283.953125 322.777344 283.960938 322.785156 C 283.863281 322.980469 283.6875 323.0625 283.53125 323.167969 C 283.449219 323.25 283.363281 323.332031 283.285156 323.414062 C 283.265625 323.441406 283.25 323.46875 283.238281 323.503906 C 283.226562 323.5 283.21875 323.492188 283.210938 323.492188 C 282.695312 324.019531 282.234375 324.550781 281.824219 325.082031 C 281.753906 325.269531 281.617188 325.65625 281.585938 325.746094 C 281.597656 325.714844 281.625 325.640625 281.671875 325.496094 C 281.746094 325.292969 281.792969 325.160156 281.824219 325.082031 C 278.550781 329.300781 278.324219 333.339844 278.324219 333.339844 C 276.019531 333.621094 271.195312 336.71875 271.476562 347.707031 C 271.757812 358.695312 275.550781 364.773438 275.550781 364.773438 L 275.550781 364.777344 C 277.78125 362.742188 280.652344 363.480469 280.652344 363.480469 C 280.652344 363.480469 280.835938 363.539062 280.902344 362.585938 C 280.800781 362.5625 280.695312 362.535156 280.566406 362.488281 C 280.675781 362.355469 280.796875 362.289062 280.914062 362.261719 C 280.933594 361.679688 280.917969 360.824219 280.828125 359.566406 C 280.59375 359.632812 280.378906 358.75 280.789062 359.074219 C 280.773438 358.898438 280.761719 358.730469 280.746094 358.539062 C 280.746094 358.539062 282.410156 357.457031 282.660156 354.160156 C 282.488281 354.226562 282.246094 354.238281 282.054688 354.289062 C 282.058594 354.019531 282.375 353.988281 282.667969 353.9375 C 282.703125 353.226562 282.683594 352.425781 282.566406 351.511719 C 281.882812 346.3125 283.152344 343.664062 283.53125 343.132812 C 283.546875 343.109375 283.5625 343.09375 283.578125 343.074219 C 283.671875 343.171875 297.164062 356.835938 311.480469 349.535156 C 311.480469 349.535156 318.433594 352.777344 322.988281 349.257812 L 323.347656 363.351562 C 323.347656 363.351562 324.335938 363.699219 325.621094 363.628906 C 326.144531 363.824219 326.679688 364.113281 327.1875 364.492188 C 332.089844 350.523438 329.914062 330.488281 329.914062 330.488281 C 332.144531 329.144531 331.761719 326.15625 331.761719 326.15625 Z M 294.234375 295.523438 C 295.789062 294.199219 298.257812 294.359375 299.917969 295.554688 C 301.574219 296.75 302.488281 298.757812 302.800781 300.777344 C 302.921875 301.542969 302.957031 302.355469 302.636719 303.058594 C 302.484375 303.398438 302.253906 303.699219 302.011719 303.980469 C 300.878906 305.304688 299.34375 306.375 297.613281 306.566406 C 295.851562 306.765625 294.050781 306.003906 292.816406 304.730469 C 291.257812 303.125 290.585938 300.707031 291.09375 298.523438 C 291.601562 296.34375 293.269531 294.46875 295.375 293.710938 M 314.722656 381.867188 C 314.90625 381.90625 315.09375 381.945312 315.277344 381.988281 C 315.238281 382.171875 315.199219 382.355469 315.160156 382.539062 C 314.972656 382.5 314.789062 382.460938 314.605469 382.421875 C 314.644531 382.234375 314.683594 382.050781 314.722656 381.867188 Z M 310.867188 388.464844 C 305.945312 392.472656 300.246094 391.457031 296.394531 389.953125 C 296.054688 390.34375 295.613281 390.710938 295.269531 390.148438 C 295.453125 389.917969 295.726562 389.824219 296.046875 389.8125 C 295.867188 389.738281 295.6875 389.664062 295.511719 389.585938 C 293.511719 388.707031 292.742188 386.269531 293.851562 384.382812 L 294.027344 384.085938 C 294.875 382.640625 296.597656 381.980469 298.210938 382.4375 C 301.847656 383.460938 305.367188 382.796875 307.4375 382.183594 C 308.671875 381.816406 310.003906 382.125 310.953125 382.996094 C 311.511719 383.507812 311.875 384.160156 312.039062 384.84375 C 312.050781 384.820312 312.066406 384.800781 312.070312 384.777344 C 312.238281 384.75 312.230469 385 312.117188 385.265625 C 312.265625 386.4375 311.855469 387.660156 310.867188 388.464844 Z M 308.625 398.808594 C 308.539062 398.640625 308.449219 398.472656 308.363281 398.304688 C 308.53125 398.21875 308.699219 398.128906 308.863281 398.042969 C 308.953125 398.210938 309.039062 398.378906 309.128906 398.542969 C 308.960938 398.632812 308.792969 398.71875 308.625 398.808594 Z M 307.296875 392.152344 C 308.3125 391.824219 305.765625 392.648438 307.296875 392.152344 Z M 306.53125 395.429688 C 305.929688 395.785156 305.945312 395.34375 306.398438 395.179688 C 307.195312 395.285156 307.199219 396.90625 306.53125 395.429688 Z M 306.84375 392.921875 C 306.785156 392.992188 306.136719 393.308594 305.953125 393.023438 C 305.804688 392.792969 307.210938 392.496094 306.84375 392.921875 Z M 305.160156 398.066406 C 304.589844 397.855469 305.65625 397.167969 306.167969 397.417969 C 306.390625 398.492188 305.191406 397.382812 305.160156 398.066406 Z M 303.8125 398.9375 C 303.980469 398.582031 304.554688 398.859375 304.980469 398.898438 C 304.8125 399.257812 304.238281 398.980469 303.8125 398.9375 Z M 300.488281 402.28125 C 301.503906 401.953125 298.957031 402.777344 300.488281 402.28125 Z M 296.972656 391.671875 C 296.304688 391.414062 297.183594 390.597656 297.703125 390.960938 C 297.527344 391.304688 297.121094 391.292969 296.972656 391.671875 Z M 296.238281 396.441406 C 295.636719 397.273438 295.777344 395.214844 296.238281 396.441406 Z M 293.84375 392.742188 C 294.085938 392.5 294.542969 392.59375 294.574219 392.03125 C 295.242188 392.289062 294.363281 393.105469 293.84375 392.742188 Z M 294.8125 390.921875 C 293.894531 391.855469 294.605469 389.917969 294.8125 390.921875 Z M 291.449219 393.097656 C 291.980469 391.828125 293.015625 391.335938 294.417969 391.414062 C 292.824219 391.800781 293.113281 392.820312 291.449219 393.097656 Z M 290.539062 394.636719 C 289.542969 394.953125 292.242188 393.734375 290.539062 394.636719 Z M 290.28125 393.136719 C 290.558594 393.195312 290.835938 393.253906 291.113281 393.316406 C 291.136719 393.960938 290.5 393.59375 290.382812 394.023438 C 290.066406 393.910156 290.257812 393.46875 290.28125 393.136719 Z M 289.476562 383.398438 C 289.589844 383.085938 290.03125 383.273438 290.367188 383.300781 C 290.25 383.617188 289.8125 383.425781 289.476562 383.398438 Z M 294.71875 381.917969 C 295.59375 381.390625 296.152344 383.0625 294.71875 381.917969 Z M 296.835938 381.503906 C 296.441406 382.582031 297.421875 379.914062 296.835938 381.503906 Z M 301.042969 380.710938 C 301.1875 380.757812 300.914062 379.816406 300.898438 379.828125 C 301.261719 379.550781 301.960938 381 301.042969 380.710938 Z M 301.78125 380.578125 C 301.863281 380.546875 301.988281 380.503906 302.175781 380.4375 C 302.226562 380.417969 302.265625 380.40625 302.296875 380.390625 C 302.335938 380.378906 302.375 380.367188 302.398438 380.355469 C 302.375 380.367188 302.339844 380.375 302.296875 380.390625 C 302.152344 380.445312 301.925781 380.527344 301.78125 380.578125 C 301.59375 380.644531 301.644531 380.625 301.78125 380.578125 Z M 315.960938 385.355469 C 315.539062 385.4375 315.871094 385.121094 315.699219 384.855469 C 316.042969 384.75 316.214844 385.222656 315.960938 385.355469 Z M 318.660156 382.421875 C 318.773438 381.730469 319.101562 382.023438 318.9375 382.484375 C 318.347656 383.027344 317.097656 381.988281 318.660156 382.421875 Z M 287.910156 383.933594 C 288.027344 383.621094 288.46875 383.808594 288.800781 383.835938 C 288.6875 384.148438 288.246094 383.960938 287.910156 383.933594 Z M 286.660156 393.804688 C 285.859375 392.886719 288.230469 393.441406 286.660156 393.804688 Z M 285.855469 384.070312 C 285.96875 383.753906 286.410156 383.945312 286.746094 383.972656 C 286.628906 384.285156 286.191406 384.097656 285.855469 384.070312 Z M 285.613281 389.234375 C 285.632812 390.824219 283.847656 388.804688 285.613281 389.234375 Z M 284.09375 382.824219 C 283.269531 382.214844 284.734375 382.140625 284.886719 381.835938 C 285.777344 382.546875 284.316406 382.621094 284.09375 382.824219 Z M 321.738281 386.035156 C 322.222656 383.78125 322.703125 377.980469 322.703125 377.980469 C 317.65625 383.460938 314.117188 381.894531 312.1875 380.71875 C 310.257812 379.539062 306.839844 379.648438 300.355469 379.648438 C 293.871094 379.648438 293.472656 380.835938 290.070312 382.425781 C 288.585938 383.117188 287.15625 382.804688 285.84375 382.089844 C 285.65625 382.292969 285.285156 382.425781 285.535156 381.910156 C 283.964844 380.96875 282.566406 379.515625 281.460938 378.625 C 281.460938 378.625 281.796875 380.351562 282.25 382.519531 C 282.371094 382.558594 282.503906 382.640625 282.648438 382.804688 C 282.53125 382.867188 282.429688 382.90625 282.339844 382.9375 C 282.535156 383.859375 282.75 384.84375 282.96875 385.800781 C 283.121094 385.816406 283.289062 385.859375 283.4375 385.871094 C 283.375 386.042969 283.214844 386.0625 283.023438 386.042969 C 283.445312 387.839844 283.867188 389.5 284.199219 390.382812 C 284.535156 391.273438 285.769531 393.082031 287.585938 395.070312 C 288.03125 394.828125 288.59375 394.773438 289.09375 394.617188 C 289.035156 394.894531 288.976562 395.171875 288.914062 395.449219 C 288.496094 395.28125 288.195312 395.300781 288.050781 395.5625 C 291.125 398.796875 295.636719 402.328125 300.273438 403.097656 C 300.273438 403.035156 300.257812 402.96875 300.21875 402.902344 C 300.433594 402.839844 300.574219 402.992188 300.597656 403.152344 C 301.09375 403.21875 301.589844 403.257812 302.085938 403.257812 C 310.460938 403.257812 320.851562 390.121094 321.738281 386.035156 " fill-opacity="1" fill-rule="nonzero"/><g clip-path="url(#ba614ee5bb)"><path fill="#2a1e50" d="M 432.105469 316.804688 C 432.105469 309.683594 426.335938 303.910156 419.210938 303.910156 L 306.140625 303.910156 C 304.800781 307.613281 301.265625 310.261719 297.105469 310.261719 C 292.941406 310.261719 289.410156 307.613281 288.070312 303.910156 L 175.558594 303.910156 C 168.4375 303.910156 162.664062 309.683594 162.664062 316.804688 L 162.664062 490.777344 C 162.664062 497.898438 168.4375 503.671875 175.558594 503.671875 L 292.421875 503.671875 C 292.484375 501.386719 292.601562 498.824219 292.769531 496.054688 C 296.632812 498.207031 301.59375 497.652344 304.875 494.371094 C 308.835938 490.410156 308.835938 483.988281 304.875 480.027344 C 301.996094 477.144531 297.8125 476.367188 294.222656 477.679688 C 296.074219 457.640625 298.652344 436.824219 298.652344 436.824219 L 294.929688 431.242188 C 296.1875 428.460938 297.257812 426.308594 297.582031 426.097656 C 298.386719 425.863281 299.804688 426.976562 300.28125 427.425781 L 300.464844 427.597656 L 300.660156 427.433594 C 301.511719 426.722656 302.667969 426.023438 302.964844 426.15625 C 303.28125 426.378906 304.363281 428.523438 305.640625 431.28125 L 302.746094 436.824219 C 302.746094 440.574219 310.933594 488.699219 312.058594 503.671875 L 387.335938 503.671875 C 386.972656 498.085938 386.152344 491.828125 382.730469 487.035156 C 380.023438 483.246094 376.085938 480.773438 371.917969 478.160156 C 368.710938 476.144531 365.398438 474.070312 362.695312 471.328125 C 359.90625 468.503906 357.8125 465.003906 356.640625 461.210938 C 355.539062 457.652344 355.222656 453.820312 354.914062 450.113281 C 354.425781 444.132812 353.957031 438.484375 350.445312 434.128906 C 347.785156 430.835938 343.734375 428.90625 339.816406 427.042969 C 339.269531 426.777344 338.722656 426.519531 338.179688 426.257812 C 333.90625 424.179688 328.742188 421.144531 326.730469 416.046875 C 325.808594 413.703125 324.878906 408.953125 324.878906 403.617188 L 324.878906 377.269531 L 323.296875 377.734375 C 323.023438 377.816406 322.757812 377.597656 322.789062 377.3125 C 323.105469 374.28125 323.132812 363.980469 323.152344 361.140625 C 323.15625 360.851562 323.457031 360.660156 323.71875 360.78125 L 324.65625 361.214844 C 324.675781 361.054688 324.691406 360.890625 324.707031 360.71875 C 325.28125 355.183594 326.46875 343.660156 319.800781 336.40625 C 315.816406 332.070312 309.539062 329.96875 301.136719 330.113281 C 293.460938 330.257812 287.746094 332.695312 284.152344 337.359375 C 278.347656 344.886719 279.488281 356.335938 280.226562 360.835938 L 280.339844 360.78125 C 280.601562 360.660156 280.902344 360.851562 280.902344 361.140625 C 280.921875 363.980469 280.953125 374.28125 281.269531 377.3125 C 281.296875 377.597656 281.03125 377.816406 280.761719 377.734375 L 278.871094 377.179688 C 277.003906 376.625 275.679688 374.960938 275.5625 373.015625 C 275.433594 370.996094 275.328125 368.332031 275.410156 365.882812 C 275.46875 364.125 276.503906 362.550781 278.101562 361.816406 L 278.609375 361.582031 C 277.8125 357.207031 276.304688 344.75 282.792969 336.324219 C 286.722656 331.222656 292.882812 328.558594 301.105469 328.40625 C 310.011719 328.230469 316.730469 330.542969 321.058594 335.25 C 328.246094 343.070312 326.957031 355.558594 326.40625 360.890625 C 326.363281 361.308594 326.328125 361.675781 326.296875 362 C 327.695312 362.796875 328.59375 364.257812 328.648438 365.882812 C 328.730469 368.332031 328.621094 370.996094 328.496094 373.015625 C 328.410156 374.425781 327.6875 375.679688 326.585938 376.476562 L 326.585938 403.617188 C 326.585938 408.703125 327.484375 413.300781 328.320312 415.417969 C 330.113281 419.964844 334.929688 422.78125 338.925781 424.722656 C 339.464844 424.980469 340.007812 425.238281 340.550781 425.496094 C 344.640625 427.449219 348.871094 429.460938 351.773438 433.058594 C 355.617188 437.820312 356.125 443.996094 356.621094 449.972656 C 356.917969 453.589844 357.226562 457.328125 358.269531 460.707031 C 359.363281 464.238281 361.316406 467.5 363.914062 470.128906 C 366.476562 472.726562 369.703125 474.75 372.824219 476.710938 C 376.953125 479.300781 381.21875 481.976562 384.121094 486.042969 C 387.828125 491.234375 388.675781 497.832031 389.050781 503.671875 L 419.210938 503.671875 C 426.335938 503.671875 432.105469 497.898438 432.105469 490.777344 Z M 293.039062 300.644531 C 293.039062 300.800781 293.050781 300.957031 293.066406 301.109375 C 293.070312 301.152344 293.078125 301.195312 293.085938 301.238281 C 293.101562 301.347656 293.117188 301.457031 293.140625 301.5625 C 293.148438 301.609375 293.164062 301.652344 293.175781 301.699219 C 293.203125 301.800781 293.226562 301.90625 293.261719 302.003906 C 293.273438 302.042969 293.289062 302.085938 293.304688 302.125 C 293.339844 302.230469 293.382812 302.328125 293.429688 302.429688 C 293.441406 302.460938 293.460938 302.496094 293.476562 302.527344 C 293.527344 302.632812 293.578125 302.738281 293.640625 302.835938 C 293.652344 302.859375 293.667969 302.886719 293.683594 302.910156 C 293.75 303.015625 293.820312 303.121094 293.894531 303.222656 C 293.902344 303.238281 293.917969 303.253906 293.929688 303.269531 C 294.011719 303.378906 294.097656 303.480469 294.191406 303.582031 C 294.199219 303.589844 294.203125 303.59375 294.210938 303.605469 C 294.3125 303.710938 294.414062 303.8125 294.527344 303.910156 C 295.289062 304.582031 296.289062 304.988281 297.386719 304.988281 C 298.480469 304.988281 299.480469 304.582031 300.242188 303.910156 C 300.355469 303.8125 300.460938 303.710938 300.558594 303.605469 C 300.566406 303.59375 300.574219 303.589844 300.578125 303.582031 C 300.671875 303.480469 300.757812 303.378906 300.839844 303.269531 C 300.851562 303.253906 300.867188 303.238281 300.878906 303.222656 C 300.949219 303.121094 301.023438 303.015625 301.089844 302.910156 C 301.101562 302.886719 301.117188 302.859375 301.128906 302.835938 C 301.191406 302.738281 301.246094 302.632812 301.296875 302.527344 C 301.3125 302.496094 301.328125 302.460938 301.34375 302.429688 C 301.390625 302.328125 301.429688 302.230469 301.464844 302.125 C 301.480469 302.085938 301.496094 302.042969 301.507812 302.003906 C 301.542969 301.90625 301.570312 301.800781 301.59375 301.699219 C 301.605469 301.652344 301.621094 301.609375 301.632812 301.5625 C 301.652344 301.457031 301.667969 301.347656 301.683594 301.238281 C 301.691406 301.195312 301.699219 301.152344 301.703125 301.109375 C 301.71875 300.957031 301.730469 300.800781 301.730469 300.644531 C 301.730469 300.46875 301.71875 300.296875 301.699219 300.128906 C 301.691406 300.078125 301.683594 300.03125 301.671875 299.976562 C 301.65625 299.859375 301.632812 299.738281 301.605469 299.621094 C 301.589844 299.570312 301.582031 299.519531 301.566406 299.46875 C 301.527344 299.339844 301.488281 299.214844 301.441406 299.089844 C 301.429688 299.0625 301.417969 299.03125 301.40625 299 C 301.34375 298.84375 301.269531 298.6875 301.1875 298.542969 C 301.183594 298.535156 301.179688 298.53125 301.175781 298.523438 C 301.097656 298.382812 301.011719 298.25 300.917969 298.117188 C 300.898438 298.09375 300.882812 298.070312 300.863281 298.046875 C 300.773438 297.933594 300.683594 297.820312 300.582031 297.710938 C 300.570312 297.695312 300.554688 297.679688 300.539062 297.660156 C 300.300781 297.410156 300.035156 297.1875 299.746094 296.996094 C 299.0625 296.558594 298.253906 296.300781 297.386719 296.300781 C 296.515625 296.300781 295.707031 296.558594 295.023438 296.996094 C 294.734375 297.1875 294.46875 297.410156 294.230469 297.660156 C 294.214844 297.679688 294.199219 297.695312 294.1875 297.710938 C 294.085938 297.820312 293.996094 297.933594 293.90625 298.046875 C 293.886719 298.070312 293.871094 298.09375 293.851562 298.117188 C 293.757812 298.25 293.671875 298.382812 293.59375 298.527344 C 293.589844 298.53125 293.585938 298.535156 293.582031 298.542969 C 293.5 298.6875 293.429688 298.84375 293.363281 299 C 293.351562 299.03125 293.339844 299.0625 293.332031 299.089844 C 293.285156 299.214844 293.242188 299.339844 293.207031 299.46875 C 293.191406 299.519531 293.179688 299.570312 293.164062 299.621094 C 293.136719 299.738281 293.113281 299.859375 293.097656 299.976562 C 293.085938 300.03125 293.078125 300.078125 293.074219 300.128906 C 293.050781 300.296875 293.039062 300.46875 293.039062 300.644531 Z M 439.738281 315.414062 L 439.738281 491.820312 C 439.738281 501.972656 431.476562 510.234375 421.324219 510.234375 L 325.128906 510.234375 C 325.253906 528.128906 331.390625 542.546875 349.355469 542.546875 L 361.359375 542.546875 C 363.453125 542.546875 365.148438 544.242188 365.148438 546.332031 C 365.148438 548.421875 363.453125 550.117188 361.359375 550.117188 L 232.984375 550.117188 C 230.894531 550.117188 229.199219 548.421875 229.199219 546.332031 C 229.199219 544.242188 230.894531 542.546875 232.984375 542.546875 L 244.988281 542.546875 C 262.953125 542.546875 269.09375 528.128906 269.21875 510.234375 L 173.445312 510.234375 C 163.292969 510.234375 155.03125 501.972656 155.03125 491.820312 L 155.03125 315.414062 C 155.03125 305.257812 163.292969 296.996094 173.445312 296.996094 L 288.207031 296.996094 C 289.644531 293.496094 293.082031 291.027344 297.105469 291.027344 C 301.125 291.027344 304.566406 293.496094 306 296.996094 L 421.324219 296.996094 C 431.476562 296.996094 439.738281 305.257812 439.738281 315.414062 Z M 299.210938 300.644531 C 300.066406 300.644531 300.761719 299.949219 300.761719 299.089844 C 300.761719 298.234375 300.066406 297.539062 299.210938 297.539062 C 298.351562 297.539062 297.65625 298.234375 297.65625 299.089844 C 297.65625 299.949219 298.351562 300.644531 299.210938 300.644531 Z M 404.53125 342.191406 C 406.4375 342.191406 407.988281 340.644531 407.988281 338.738281 C 407.988281 338.347656 407.917969 337.976562 407.796875 337.625 C 408.761719 338.046875 409.386719 338.554688 409.402344 338.566406 L 409.6875 338.222656 C 409.589844 338.140625 407.261719 336.226562 404.464844 336.710938 C 402.628906 337.027344 401.039062 338.304688 399.746094 340.503906 L 400.132812 340.734375 C 400.445312 340.199219 400.78125 339.71875 401.128906 339.300781 C 401.398438 340.941406 402.816406 342.191406 404.53125 342.191406 Z M 387.917969 336.710938 C 385.121094 336.226562 382.792969 338.140625 382.695312 338.222656 L 382.980469 338.566406 C 382.996094 338.554688 383.621094 338.046875 384.582031 337.625 C 384.464844 337.976562 384.394531 338.347656 384.394531 338.738281 C 384.394531 340.644531 385.945312 342.191406 387.851562 342.191406 C 389.566406 342.191406 390.984375 340.941406 391.253906 339.300781 C 391.601562 339.71875 391.933594 340.199219 392.25 340.734375 L 392.632812 340.503906 C 391.339844 338.304688 389.753906 337.027344 387.917969 336.710938 Z M 393.039062 334.3125 C 394.472656 332.875 393.753906 332.078125 393.753906 332.078125 C 393.914062 333.113281 393.039062 334.3125 393.039062 334.3125 Z M 398.855469 332.339844 C 398.855469 332.339844 399.46875 335.058594 401.089844 334.726562 C 401.488281 334.640625 406.363281 333.710938 407.414062 333.726562 C 409.429688 333.75 410.589844 334.65625 410.589844 334.65625 C 410.589844 334.65625 409.425781 331.9375 406.808594 331.433594 C 404.671875 331.023438 400.726562 331.886719 399.347656 332.214844 C 399.769531 333.207031 400.441406 334.085938 400.441406 334.085938 C 399.785156 333.722656 398.855469 332.339844 398.855469 332.339844 Z M 385.554688 331.433594 C 382.9375 331.9375 381.769531 334.65625 381.769531 334.65625 C 381.769531 334.65625 382.933594 333.75 384.949219 333.726562 C 386.269531 333.710938 389.324219 334.308594 391.269531 334.726562 C 392.894531 335.058594 393.507812 332.339844 393.507812 332.339844 C 393.507812 332.339844 392.578125 333.722656 391.921875 334.085938 C 391.921875 334.085938 392.59375 333.207031 393.015625 332.214844 C 391.636719 331.886719 387.691406 331.023438 385.554688 331.433594 Z M 419.585938 351.578125 C 420.011719 341.503906 418.574219 322.988281 411.964844 318.136719 C 403.667969 312.039062 391.496094 311.109375 388.734375 316.355469 C 388.734375 316.355469 376.828125 316.902344 374.289062 334.617188 C 372.394531 347.835938 373.511719 358.824219 372.835938 364.253906 C 374.277344 365.410156 376.105469 366.101562 378.097656 366.101562 L 381.511719 366.101562 C 381.074219 364.605469 382.074219 363.4375 383.136719 362.207031 C 384.214844 360.949219 385.332031 359.652344 384.941406 357.914062 C 384.28125 354.949219 382.050781 347.753906 381.335938 345.464844 C 381.21875 345.488281 381.089844 345.492188 380.964844 345.453125 C 380.964844 345.453125 380.949219 345.40625 380.925781 345.332031 C 380.71875 345.304688 380.511719 345.273438 380.308594 345.21875 C 380.292969 345.21875 380.027344 345.136719 380.003906 345.128906 C 379.25 344.882812 378.546875 344.460938 377.945312 343.859375 C 377.917969 343.832031 377.5 343.351562 377.476562 343.328125 C 376.957031 342.65625 376.546875 341.828125 376.289062 340.839844 C 376.285156 340.8125 376.195312 340.429688 376.191406 340.410156 C 376.132812 340.128906 376.082031 339.835938 376.050781 339.527344 C 375.773438 336.894531 376.929688 335.460938 378.066406 334.703125 C 378.113281 334.671875 378.199219 334.617188 378.253906 334.582031 C 379.1875 334.011719 380.054688 333.875 380.054688 333.875 L 379.8125 331.53125 C 385.992188 330.71875 390.390625 323.800781 390.390625 323.800781 C 398.746094 329.324219 412.546875 331.53125 412.546875 331.53125 C 412.546875 331.53125 412.546875 331.886719 412.480469 333.921875 C 413.359375 334.179688 416.726562 335.230469 416.277344 339.527344 C 416.238281 339.886719 416.175781 340.222656 416.105469 340.550781 C 416.089844 340.617188 416.042969 340.832031 416.027344 340.894531 C 415.839844 341.59375 415.574219 342.210938 415.25 342.75 C 415.246094 342.753906 415.214844 342.804688 415.207031 342.8125 C 415.074219 343.027344 414.929688 343.230469 414.773438 343.417969 C 414.773438 343.421875 414.761719 343.4375 414.757812 343.4375 C 413.808594 344.597656 412.53125 345.238281 411.191406 345.359375 C 411.136719 345.519531 411.074219 345.695312 411.007812 345.890625 C 409.867188 349.140625 407.195312 356.753906 408.433594 359.554688 C 408.675781 360.105469 408.890625 360.574219 409.078125 360.984375 C 410.058594 363.148438 410.292969 363.660156 410.265625 366.101562 L 416.179688 366.101562 C 418.292969 366.101562 420.21875 365.324219 421.703125 364.042969 C 420.550781 361.253906 419.359375 356.996094 419.585938 351.578125 Z M 408.6875 361.160156 C 408.5 360.75 408.285156 360.28125 408.042969 359.730469 C 406.738281 356.769531 409.449219 349.046875 410.605469 345.746094 C 410.652344 345.613281 410.691406 345.496094 410.734375 345.378906 C 410.644531 345.378906 410.554688 345.386719 410.464844 345.382812 C 410.117188 346.636719 409.710938 347.78125 409.230469 348.679688 C 409.109375 348.910156 408.507812 349.859375 408.457031 349.9375 C 407.707031 351.023438 406.761719 352.085938 405.707031 353.070312 C 405.433594 353.269531 404.835938 353.800781 404.546875 354.09375 C 404.238281 355.304688 402.734375 362.09375 401.847656 366.101562 L 410.054688 366.101562 L 409.835938 366.097656 C 409.867188 363.753906 409.664062 363.304688 408.6875 361.160156 Z M 389.007812 356.054688 C 388.996094 356.003906 388.988281 355.953125 388.980469 355.902344 C 388.9375 355.671875 388.757812 354.691406 388.734375 354.574219 C 388.148438 354.15625 387.574219 353.710938 387.023438 353.25 C 387 353.261719 385.929688 352.285156 385.695312 352.0625 C 385.679688 352.046875 385.15625 351.515625 385.136719 351.496094 C 384.476562 350.804688 383.914062 350.105469 383.492188 349.417969 C 383.476562 349.390625 383.304688 349.09375 383.289062 349.0625 C 383.210938 348.917969 383.136719 348.773438 383.074219 348.632812 C 382.789062 348.003906 382.53125 347.355469 382.289062 346.691406 C 382.253906 346.59375 381.910156 345.585938 381.847656 345.382812 C 381.816406 345.382812 381.785156 345.378906 381.753906 345.378906 C 382.484375 347.710938 384.699219 354.859375 385.359375 357.820312 C 385.796875 359.769531 384.554688 361.210938 383.460938 362.484375 C 382.421875 363.691406 381.523438 364.734375 381.9375 366.035156 L 381.734375 366.101562 L 390.683594 366.101562 C 390.484375 364.960938 390.300781 363.816406 390.109375 362.671875 C 389.742188 360.46875 389.375 358.261719 389.007812 356.054688 Z M 285.925781 363.675781 C 285.445312 364.429688 285.164062 365.328125 285.164062 366.292969 C 285.164062 367.292969 285.464844 368.222656 285.980469 369 C 286.710938 369.914062 287.714844 370.699219 289.089844 371.101562 C 289.40625 371.164062 289.734375 371.199219 290.070312 371.199219 C 292.539062 371.199219 294.574219 369.371094 294.917969 366.996094 C 295.714844 368.664062 295.816406 370.273438 295.816406 370.296875 L 296.386719 370.269531 C 296.378906 370.089844 296.121094 365.890625 292.960938 363.804688 C 290.757812 362.347656 287.722656 362.304688 283.941406 363.6875 L 284.136719 364.21875 C 284.753906 363.992188 285.351562 363.820312 285.925781 363.675781 Z M 308.617188 370.296875 L 308.046875 370.269531 C 308.054688 370.089844 308.3125 365.890625 311.472656 363.804688 C 313.675781 362.347656 316.710938 362.304688 320.492188 363.6875 L 320.296875 364.21875 C 319.675781 363.992188 319.082031 363.820312 318.507812 363.675781 C 318.988281 364.429688 319.269531 365.328125 319.269531 366.292969 C 319.269531 367.292969 318.96875 368.222656 318.453125 369 C 317.722656 369.914062 316.714844 370.699219 315.339844 371.101562 C 315.027344 371.164062 314.699219 371.199219 314.363281 371.199219 C 311.890625 371.199219 309.855469 369.371094 309.515625 366.992188 C 308.714844 368.664062 308.617188 370.273438 308.617188 370.296875 " fill-opacity="1" fill-rule="nonzero"/></g></svg>